<svg width="111" height="109" fill="none" xmlns="http://www.w3.org/2000/svg"><path opacity=".2" d="M102.248 66.574a27.981 27.981 0 0 0 0-40.064c-12.103-11.893-32.684-10.546-43.147 2.636-11.824-11.619-30.163-15.182-42.93-2.637-11.26 11.064-11.26 29.519 0 40.582l42.628 41.885c14.428-14.182 29.03-28.233 43.449-42.402z" fill="#FE6456"/><path d="M53.262 13.949l2.4 2.4 2.087-2.677C67.926.622 88.011-.708 99.775 11.056c10.967 10.967 10.967 28.747 0 39.713-7.698 7.699-15.446 15.366-23.2 23.042l-.205.202A6787.827 6787.827 0 0 0 55.057 95.17L11.225 51.337C.258 40.37.258 22.023 11.225 11.057c12.203-12.204 30.03-9.115 42.037 2.892z" stroke="#FE6456" stroke-width="6"/><path d="M28.477 36.008a8.237 8.237 0 0 1 0-11.65" stroke="#FE6456" stroke-width="6" stroke-linecap="round" stroke-linejoin="round"/></svg>