<svg width="10" height="12" viewBox="0 0 10 12" fill="none" xmlns="http://www.w3.org/2000/svg">
<path fill-rule="evenodd" clip-rule="evenodd" d="M5.20972 1.67294C5.20972 1.12066 5.65743 0.672943 6.20972 0.672943C6.762 0.672943 7.20972 1.12066 7.20972 1.67294V3.41368L8.62984 4.07115C8.98341 4.23484 9.20972 4.58899 9.20972 4.97862V10.6729C9.20972 11.2252 8.762 11.6729 8.20972 11.6729H6.20972V8.67294C6.20972 8.12066 5.762 7.67294 5.20972 7.67294H4.20972C3.65743 7.67294 3.20972 8.12066 3.20972 8.67294V11.6729H1.20972C0.657432 11.6729 0.209717 11.2252 0.209717 10.6729V1.73788C0.209717 1.00758 0.967118 0.523592 1.62984 0.830408L5.20972 2.48776V1.67294Z" fill="#373232"/>
</svg>
