<svg fill="none" height="64" width="64" xmlns="http://www.w3.org/2000/svg"><path d="M54.651 40.328a13.588 13.588 0 0 0 0-19.455c-5.877-5.775-15.871-5.12-20.952 1.28-5.742-5.642-14.647-7.372-20.846-1.28-5.468 5.372-5.468 14.334 0 19.706l20.7 20.34c7.006-6.888 14.096-13.71 21.098-20.591z" fill="#304081" opacity=".2"/><g stroke="#304081" stroke-width="4"><path d="M30.48 15.158l1.6 1.6 1.39-1.785c4.744-6.081 14.116-6.7 19.596-1.22 5.113 5.113 5.113 13.403 0 18.516-3.738 3.738-7.5 7.46-11.266 11.188l-.097.097c-3.325 3.29-6.653 6.585-9.967 9.892L10.835 32.545c-5.113-5.113-5.113-13.679 0-18.792C16.478 8.11 24.784 9.46 30.48 15.158z"/><path d="M18.828 25.485a4 4 0 0 1 0-5.657" stroke-linecap="round" stroke-linejoin="round"/></g></svg>