<svg fill="none" height="64" width="64" xmlns="http://www.w3.org/2000/svg"><path d="M21.75 25.125c.552 0 .998.449 1.015 1.001.443 14.56 10.51 27.13 24.72 30.683.215.054.366-.212.212-.372A43.577 43.577 0 0 1 35.5 26.21v-.084a1 1 0 0 1 1-1h9.336c.89 0 1.337-1.077.707-1.707l-16.71-16.71a1 1 0 0 0-1.415 0l-16.71 16.71c-.63.63-.185 1.707.706 1.707z" stroke="#304081" stroke-width="4"/><path d="M27.75 28.125c.552 0 .998.449 1.015 1.001.443 14.56 10.51 27.13 24.72 30.683.215.054.366-.212.212-.372A43.577 43.577 0 0 1 41.5 29.21v-.084a1 1 0 0 1 1-1h9.336c.89 0 1.337-1.077.707-1.707l-16.71-16.71a1 1 0 0 0-1.415 0l-16.71 16.71c-.63.63-.185 1.707.706 1.707z" fill="#304081" opacity=".2"/></svg>