<svg fill="none" height="64" width="64" xmlns="http://www.w3.org/2000/svg"><path d="M50 41.128C50 50.434 42.402 58 33 58s-17-7.566-17-16.872c0-2.083.98-4.838 2.719-7.98 1.706-3.085 4.007-6.303 6.347-9.248a129.498 129.498 0 0 1 6.43-7.453c.57-.613 1.078-1.148 1.504-1.591a129.498 129.498 0 0 1 7.934 9.044c2.34 2.945 4.64 6.164 6.347 9.248C49.02 36.29 50 39.045 50 41.128z" stroke="#304081" stroke-width="4"/><path d="M54 45.094C54 54.431 46.165 62 36.5 62S19 54.43 19 45.094 36.5 19 36.5 19 54 35.757 54 45.094z" fill="#304081" opacity=".2"/><path d="M39 45.738c0-.81-.476-1.214-1.429-1.214h-6.31v-4.976h3.31c.286 0 .524-.088.715-.262a.94.94 0 0 0 .285-.69.864.864 0 0 0-.285-.667.97.97 0 0 0-.715-.286h-3.31v-2.738c0-.81.2-1.42.596-1.834.397-.412.937-.619 1.62-.619.587 0 1.166.12 1.737.358s1.183.587 1.834 1.047c.158.095.317.175.476.238s.317.096.476.096c.286 0 .524-.12.714-.358s.286-.531.286-.88c0-.239-.04-.445-.119-.62a1.309 1.309 0 0 0-.429-.523c-.666-.556-1.452-.992-2.357-1.31a7.869 7.869 0 0 0-2.738-.5c-1.571 0-2.817.429-3.738 1.286-.92.841-1.38 1.976-1.38 3.405v9.833h-.81c-.953 0-1.429.405-1.429 1.214 0 .841.476 1.262 1.429 1.262H37.57c.953 0 1.429-.42 1.429-1.262z" fill="#304081"/><g stroke="#304081" stroke-linecap="round" stroke-linejoin="round" stroke-width="4"><path d="M23 14h19m-9.807-.35L27.65 7.806M35 11.172L38.172 8"/></g></svg>