<svg fill="none" height="64" width="64" xmlns="http://www.w3.org/2000/svg"><ellipse cx="38" cy="38" fill="#304081" opacity=".2" rx="23" ry="23" transform="rotate(-90 38 38)"/><path d="M32 8c13.255 0 24 10.745 24 24S45.255 56 32 56 8 45.255 8 32 18.745 8 32 8z" stroke="#304081" stroke-width="4"/><path d="M43.652 41.198c0-1.156-.68-1.734-2.04-1.734h-9.01v-7.106h4.726c.408 0 .748-.125 1.02-.374.272-.272.408-.6.408-.986s-.136-.703-.408-.952a1.384 1.384 0 0 0-1.02-.408h-4.726v-3.91c0-1.156.283-2.029.85-2.618s1.337-.884 2.312-.884c.839 0 1.666.17 2.482.51s1.689.839 2.618 1.496c.227.136.453.25.68.34s.453.136.68.136c.408 0 .748-.17 1.02-.51s.408-.76.408-1.258c0-.34-.057-.635-.17-.884-.113-.272-.317-.521-.612-.748-.952-.793-2.074-1.417-3.366-1.87a11.236 11.236 0 0 0-3.91-.714c-2.244 0-4.023.612-5.338 1.836-1.315 1.201-1.972 2.822-1.972 4.862v14.042h-1.156c-1.36 0-2.04.578-2.04 1.734 0 1.201.68 1.802 2.04 1.802h14.484c1.36 0 2.04-.6 2.04-1.802z" fill="#304081"/><g stroke="#304081" stroke-linecap="round" stroke-linejoin="round" stroke-width="3"><path d="M25 31h-7m2.95-5L16 30.95m4.95 5.475L16 31.475"/></g></svg>