<svg fill="none" height="64" width="64" xmlns="http://www.w3.org/2000/svg"><mask id="a" fill="#000" height="58" maskUnits="userSpaceOnUse" width="37" x="22" y="2"><path d="M22 2h37v58H22z" fill="#fff"/><path d="M49.94 39.167l4.65.392a.458.458 0 0 1 .295.149.446.446 0 0 1 .115.306v4.078a.444.444 0 0 1-.136.32l-2.81 2.687a.448.448 0 0 0-.107.477.449.449 0 0 0 .398.292.456.456 0 0 1 .369.406.444.444 0 0 1-.301.458L37.63 52.86a.455.455 0 0 0-.24.157L36.09 54.7a.455.455 0 0 1-.273.168l-5.805 1.122a.46.46 0 0 1-.467-.187.445.445 0 0 1-.005-.497l3.411-5.156a.453.453 0 0 1 .381-.202h4.947a.46.46 0 0 0 .392-.224l1.28-2.205a.443.443 0 0 0-.198-.624.46.46 0 0 0-.24-.044l-6.255.561a.46.46 0 0 1-.312-.084l-2.843-2.075a.45.45 0 0 1-.182-.337.442.442 0 0 1 .148-.353l4.037-3.658a.447.447 0 0 0-.165-.757l-.961-.309a.456.456 0 0 1-.313-.403.445.445 0 0 1 .267-.433l4.776-2.11a.452.452 0 0 0 .262-.499l-1.575-7.472a.458.458 0 0 0-.444-.36h-5.06a.458.458 0 0 1-.448-.357.443.443 0 0 1 .004-.203l.768-3.607a.443.443 0 0 0-.136-.418.457.457 0 0 0-.433-.104l-2.234.662a.46.46 0 0 1-.498-.182.446.446 0 0 1-.07-.171l-1.837-10.098a.443.443 0 0 1 .08-.348l5.071-6.732a.456.456 0 0 1 .296-.174l5.157-.825a.46.46 0 0 1 .463.207.444.444 0 0 1-.02.5l-3.411 4.724a.445.445 0 0 0 .116.63.459.459 0 0 0 .225.077l6.408.465a.46.46 0 0 1 .361.224.445.445 0 0 1 .014.421l-3.667 7.355a.444.444 0 0 0 .17.561l5.288 3.231a.45.45 0 0 1 .182.208l2.223 5.256a.45.45 0 0 0 .052.09l3.82 5.234c.04.055.068.119.08.185l.614 3.422a.447.447 0 0 0 .14.254.458.458 0 0 0 .27.117z"/></mask><path d="M49.94 39.167l4.65.392a.458.458 0 0 1 .295.149.446.446 0 0 1 .115.306v4.078a.444.444 0 0 1-.136.32l-2.81 2.687a.448.448 0 0 0-.107.477.449.449 0 0 0 .398.292.456.456 0 0 1 .369.406.444.444 0 0 1-.301.458L37.63 52.86a.455.455 0 0 0-.24.157L36.09 54.7a.455.455 0 0 1-.273.168l-5.805 1.122a.46.46 0 0 1-.467-.187.445.445 0 0 1-.005-.497l3.411-5.156a.453.453 0 0 1 .381-.202h4.947a.46.46 0 0 0 .392-.224l1.28-2.205a.443.443 0 0 0-.198-.624.46.46 0 0 0-.24-.044l-6.255.561a.46.46 0 0 1-.312-.084l-2.843-2.075a.45.45 0 0 1-.182-.337.442.442 0 0 1 .148-.353l4.037-3.658a.447.447 0 0 0-.165-.757l-.961-.309a.456.456 0 0 1-.313-.403.445.445 0 0 1 .267-.433l4.776-2.11a.452.452 0 0 0 .262-.499l-1.575-7.472a.458.458 0 0 0-.444-.36h-5.06a.458.458 0 0 1-.448-.357.443.443 0 0 1 .004-.203l.768-3.607a.443.443 0 0 0-.136-.418.457.457 0 0 0-.433-.104l-2.234.662a.46.46 0 0 1-.498-.182.446.446 0 0 1-.07-.171l-1.837-10.098a.443.443 0 0 1 .08-.348l5.071-6.732a.456.456 0 0 1 .296-.174l5.157-.825a.46.46 0 0 1 .463.207.444.444 0 0 1-.02.5l-3.411 4.724a.445.445 0 0 0 .116.63.459.459 0 0 0 .225.077l6.408.465a.46.46 0 0 1 .361.224.445.445 0 0 1 .014.421l-3.667 7.355a.444.444 0 0 0 .17.561l5.288 3.231a.45.45 0 0 1 .182.208l2.223 5.256a.45.45 0 0 0 .052.09l3.82 5.234c.04.055.068.119.08.185l.614 3.422a.447.447 0 0 0 .14.254.458.458 0 0 0 .27.117z" mask="url(#a)" stroke="#304081" stroke-width="8"/><path d="M21.6 31.132l.014.02a2.446 2.446 0 0 1-.189 2.895l-.025.03-.025.027-1.847 2.034a2.463 2.463 0 0 1-1.747.86l-.053.002h-2.452v-2a.477.477 0 0 1-.42-.25zm0 0l-.013-.02m.014.02l-.014-.02m0 0l-2.739-4.054-.042-.063m2.78 4.117l-2.78-4.117m0 0l-.047-.06m.047.06l-.047-.06m0 0a2.466 2.466 0 0 0-2-.934h-2.012m4.012.934l-4.012-.934m0 0a2.473 2.473 0 0 0-1.706.685l-.002.002-4.284 4.098M14.747 26l-5.992 4.785m0 0l-.009.008m.01-.008l-.01.008m0 0a2.45 2.45 0 0 0-.156 3.353l.001.001m.155-3.354l-.155 3.354m0 0l1.55 1.805z" stroke="#304081" stroke-width="4"/><g fill="#304081"><path d="M54.416 42.483l5.132.432c.125.013.241.071.325.164s.13.212.127.336v4.487a.488.488 0 0 1-.15.351l-3.1 2.956a.491.491 0 0 0 .32.846c.108.02.207.074.28.155a.49.49 0 0 1-.205.795l-16.312 4.542a.503.503 0 0 0-.264.173l-1.436 1.85a.503.503 0 0 1-.302.186l-6.405 1.234a.51.51 0 0 1-.515-.206.488.488 0 0 1-.006-.547l3.764-5.67a.498.498 0 0 1 .42-.223h5.459a.509.509 0 0 0 .433-.247l1.412-2.425a.487.487 0 0 0-.218-.687.51.51 0 0 0-.265-.047l-6.902.617a.508.508 0 0 1-.345-.093l-3.137-2.283a.496.496 0 0 1-.2-.37.486.486 0 0 1 .162-.39l4.455-4.023a.494.494 0 0 0 .152-.467.49.49 0 0 0-.334-.366l-1.06-.34a.502.502 0 0 1-.346-.442.487.487 0 0 1 .296-.476l5.27-2.32a.486.486 0 0 0 .289-.55l-1.739-8.22a.492.492 0 0 0-.173-.283.507.507 0 0 0-.316-.112h-5.584a.508.508 0 0 1-.4-.19.49.49 0 0 1-.09-.427l.848-3.968a.485.485 0 0 0-.15-.46.506.506 0 0 0-.478-.114l-2.465.729a.51.51 0 0 1-.55-.2.49.49 0 0 1-.078-.19L28.01 14.894a.486.486 0 0 1 .088-.382l5.596-7.406a.503.503 0 0 1 .326-.19l5.69-.908a.51.51 0 0 1 .511.227.488.488 0 0 1-.02.55l-3.765 5.196a.488.488 0 0 0 .128.694c.073.05.16.078.248.084l7.071.512a.508.508 0 0 1 .399.247.487.487 0 0 1 .015.463l-4.047 8.09a.486.486 0 0 0 .189.617l5.834 3.555c.09.053.16.133.201.228l2.453 5.782a.49.49 0 0 0 .057.099l4.216 5.757c.045.06.075.13.088.204l.677 3.764a.491.491 0 0 0 .156.28.506.506 0 0 0 .296.127zM22.93 34.231l-2.738-4.054a.465.465 0 0 0-.397-.176H17.75a.474.474 0 0 0-.327.13l-4.285 4.1a.45.45 0 0 0-.03.614l1.554 1.808a.465.465 0 0 0 .317.162.48.48 0 0 0 .342-.105l1.32-1.069a.472.472 0 0 1 .586-.01.458.458 0 0 1 .132.158l.496.96c.04.077.1.14.174.184s.16.068.247.067h2.4a.476.476 0 0 0 .344-.176l1.874-2.064a.449.449 0 0 0 .035-.529z" opacity=".2"/></g></svg>