<svg fill="none" height="64" width="64" xmlns="http://www.w3.org/2000/svg"><ellipse cx="38" cy="38" fill="#304081" opacity=".2" rx="23" ry="23" transform="rotate(-90 38 38)"/><path d="M16 49.172L24.172 41M40 23.172L47.172 16" stroke="#304081" stroke-linecap="round" stroke-linejoin="round" stroke-width="4"/><path d="M32 8c13.255 0 24 10.745 24 24S45.255 56 32 56 8 45.255 8 32 18.745 8 32 8z" stroke="#304081" stroke-width="4"/><g fill="#304081"><path d="M23.035 31.16c.772.237 1.364.636 1.775 1.197.41.548.616 1.227.616 2.037 0 .722-.193 1.357-.579 1.906-.374.535-.916.953-1.626 1.252-.697.299-1.52.448-2.466.448h-4.97c-.512 0-.904-.137-1.178-.411-.274-.274-.411-.666-.411-1.177v-9.997c0-.511.137-.904.41-1.178s.667-.41 1.178-.41h4.784c1.383 0 2.479.31 3.289.933.822.61 1.233 1.44 1.233 2.486 0 .672-.18 1.27-.542 1.794-.361.51-.866.884-1.513 1.12zm-5.494-1.158h2.448c.647 0 1.12-.1 1.42-.299.299-.2.448-.517.448-.953 0-.46-.15-.797-.448-1.009s-.773-.318-1.42-.318H17.54zm2.784 5.4c.685 0 1.171-.105 1.458-.317.299-.224.448-.586.448-1.084 0-.498-.15-.853-.449-1.065-.286-.224-.772-.336-1.457-.336h-2.784v2.803zm8.564 2.71c-.523 0-.94-.15-1.252-.448-.299-.312-.448-.73-.448-1.252v-9.998c0-.51.137-.903.41-1.177.275-.274.667-.41 1.178-.41h4.784c1.457 0 2.591.373 3.4 1.12.81.735 1.215 1.763 1.215 3.084 0 1.308-.41 2.335-1.233 3.083-.81.747-1.937 1.121-3.382 1.121h-2.934v3.177c0 .523-.156.94-.467 1.252-.312.299-.735.448-1.27.448zm4.205-7.456c.635 0 1.102-.13 1.401-.392.312-.262.467-.667.467-1.215 0-1.084-.623-1.625-1.868-1.625h-2.467v3.232zm17.95 5.233c.111.236.167.467.167.69 0 .412-.168.76-.504 1.047-.324.287-.698.43-1.121.43a1.44 1.44 0 0 1-.785-.224 1.514 1.514 0 0 1-.56-.673l-.842-1.887h-6.054l-.86 1.887c-.137.3-.33.523-.579.673a1.44 1.44 0 0 1-.785.224c-.423 0-.81-.143-1.158-.43-.337-.286-.505-.635-.505-1.046 0-.224.056-.455.168-.691L42.56 25.76c.161-.336.398-.591.71-.766.323-.187.678-.28 1.065-.28.373 0 .722.093 1.046.28.324.175.567.43.729.766zm-4.803-3.196l-1.869-4.167-1.869 4.167z"/></g></svg>