<svg fill="none" height="64" width="64" xmlns="http://www.w3.org/2000/svg"><clipPath id="a"><path d="M0 0h64v64H0z"/></clipPath><g clip-path="url(#a)"><path clip-rule="evenodd" d="M45.14 21.555a6.94 6.94 0 0 0 .036 13.881 2 2 0 0 1 0 4 6.94 6.94 0 0 0-.035 13.882 1.998 1.998 0 0 1 1.667.843 1.99 1.99 0 0 1 .357 1.367 1.987 1.987 0 0 1-.833 1.422 2 2 0 0 1-.214.133c-4.91 2.737-17.505 6.468-29.775.024a2 2 0 0 1 .93-3.79 6.94 6.94 0 0 0-.037-13.88 2 2 0 0 1 0-4 6.94 6.94 0 0 0 .035-13.882 1.994 1.994 0 0 1-1.046-.274 1.987 1.987 0 0 1-.924-1.22 1.993 1.993 0 0 1 .21-1.517 1.988 1.988 0 0 1 .784-.754c4.91-2.738 17.504-6.468 29.775-.025a1.995 1.995 0 0 1 .819.756 1.987 1.987 0 0 1 .23 1.513 1.99 1.99 0 0 1-.908 1.232 1.987 1.987 0 0 1-1.071.289zm-6.271 15.881a10.928 10.928 0 0 1-4.634-8.94c0-3.856 1.995-7.246 5.008-9.194-6.021-1.754-11.81-1.152-16.034.025a10.931 10.931 0 0 1 4.968 9.168c0 3.694-1.83 6.96-4.633 8.941a10.928 10.928 0 0 1 4.633 8.941c0 3.855-1.994 7.245-5.008 9.194 6.022 1.753 11.81 1.151 16.035-.026a10.932 10.932 0 0 1-4.969-9.168c0-3.694 1.83-6.96 4.634-8.94z" fill="#304081" fill-rule="evenodd"/><path clip-rule="evenodd" d="M50.753 24.834c-3.638.022-6.58 3.02-6.58 6.714 0 3.708 2.963 6.714 6.62 6.714 1.142 0 2.082.88 2.195 2.01.008.074.012.15.012.228 0 1.236-.988 2.238-2.207 2.238-3.657 0-6.62 3.006-6.62 6.714 0 3.695 2.943 6.693 6.582 6.714a2.172 2.172 0 0 1 1.154.307 2.245 2.245 0 0 1 1.078 2.166 2.247 2.247 0 0 1-1.156 1.74c-4.894 2.765-17.409 6.522-29.61.027a2.212 2.212 0 0 1-.903-.846 2.257 2.257 0 0 1 .07-2.422 2.207 2.207 0 0 1 1.859-.972c3.638-.022 6.58-3.02 6.58-6.714 0-3.708-2.963-6.714-6.62-6.714-1.219 0-2.207-1.002-2.207-2.238s.988-2.238 2.207-2.238c3.657 0 6.62-3.006 6.62-6.714 0-3.695-2.943-6.693-6.582-6.714a2.172 2.172 0 0 1-1.153-.307 2.244 2.244 0 0 1-1.08-2.166 2.244 2.244 0 0 1 1.157-1.74c4.894-2.765 17.409-6.522 29.61-.027a2.21 2.21 0 0 1 .903.845 2.257 2.257 0 0 1-.07 2.424 2.207 2.207 0 0 1-1.86.971z" fill="#304081" fill-rule="evenodd" opacity=".2"/><path d="M30.606 9.748c.23-1.903 1.93-6.003 6.89-7.177" stroke="#304081" stroke-linecap="round" stroke-linejoin="round" stroke-width="4"/></g></svg>