<svg fill="none" height="64" width="64" xmlns="http://www.w3.org/2000/svg"><clipPath id="a"><path d="M0 0h64v64H0z"/></clipPath><g clip-path="url(#a)"><path d="M16.512 32.258c-1.697-1.236-1.633-3.787.123-4.936l16.372-10.714a3 3 0 0 1 3.355.047l16.975 11.799c1.749 1.216 1.709 3.817-.077 4.978L36.432 44.374a3 3 0 0 1-3.401-.09z" fill="#304081" opacity=".2"/><g stroke="#304081" stroke-linecap="round" stroke-linejoin="round" stroke-width="4"><path d="M12 29.1v16.696l19.8 14.201 19.798-14.2V31"/><path d="M19.456 27.63l12.63 9.06 12.631-9.06M12.9 22.7l18.9-13.65 18.9 13.65M32 50.5v-13"/></g></g></svg>