<svg fill="none" height="64" width="64" xmlns="http://www.w3.org/2000/svg"><path d="M22.473 39.962c4.986-9.4 10.163-10.743 10.163-25.962 2.385 3.082 5.844 8.444 6.963 14 16.684 17 10.737 33 0 33 0 0 1.163-7-4.599-14.5-5.583 8-4.486 10.5-4.486 14.5-12.3 0-12.077-13.429-8.041-21.038z" fill="#304081" opacity=".2"/><g stroke="#304081" stroke-width="4"><path d="M34.368 32.724c1.732-3.014 1.9-6.404 1.23-9.724m0 0c-1.118-5.556-4.577-10.918-6.962-14 0 15.219-5.178 16.562-10.163 25.962C14.437 42.572 14.214 56 26.513 56c0-4-1.096-6.5 4.487-14.5C36.762 49 35.599 56 35.599 56c10.737 0 16.684-16 0-33z"/><path d="M8 21.321L56.32 49.937" stroke-linecap="round"/></g></svg>