<svg fill="none" height="64" width="64" xmlns="http://www.w3.org/2000/svg"><path d="M18 44.9l18.2-7.63c2.605-1.092 5.138 1.694 3.803 4.185L38.156 44.9H55.95a4.05 4.05 0 0 1 0 8.1H18" stroke="#304081" stroke-width="4"/><path d="M38.36 41.06L22 48.9V57h37.95a4.05 4.05 0 1 0 0-8.1H42.656v-5.135c0-2.209-2.305-3.66-4.297-2.706z" fill="#304081" opacity=".2"/><path d="M18 54V41a2 2 0 0 0-2-2H8a2 2 0 0 0-2 2v13a2 2 0 0 0 2 2h8a2 2 0 0 0 2-2z" stroke="#304081" stroke-width="4"/><path d="M55.032 22.173a6.46 6.46 0 0 0 0-9.286c-2.821-2.756-7.619-2.444-10.057.611-2.756-2.692-7.03-3.518-10.007-.61-2.624 2.563-2.624 6.84 0 9.405L44.904 32c3.363-3.287 6.766-6.543 10.128-9.827z" fill="#304081" opacity=".2"/><path d="M39.567 10.16l1.59 1.57 1.385-1.754c1.906-2.414 5.715-2.664 7.92-.486a5.129 5.129 0 0 1 0 7.324l1.406 1.423-1.406-1.423c-1.8 1.779-3.614 3.551-5.431 5.328l-.046.045a1938.144 1938.144 0 0 0-4.087 4.003l-9.36-9.245c-2.05-2.025-2.05-5.43 0-7.455 2.189-2.162 5.539-1.79 8.03.67z" stroke="#304081" stroke-width="4"/></svg>