<svg fill="none" height="64" width="64" xmlns="http://www.w3.org/2000/svg"><path d="M32.671 25.772V10a3 3 0 0 1 3-3h3.014a3 3 0 0 1 3 3v15.747a3 3 0 0 0 .468 1.61L58.07 52.39c1.27 1.998-.165 4.61-2.531 4.61H19.365c-2.346 0-3.784-2.572-2.556-4.57l15.418-25.087a3 3 0 0 0 .444-1.57z" fill="#304081" opacity=".2"/><g stroke="#304081" stroke-linecap="round" stroke-width="4"><path d="M27.288 7v17.658L11 52h41L35.15 24.658V7M27 37h-7m4 6h-6" stroke-linejoin="round"/><path d="M9.178 17.384L57.5 46"/></g></svg>