<svg fill="none" height="64" width="64" xmlns="http://www.w3.org/2000/svg"><path d="M35.877 20.757v1.91a3.458 3.458 0 0 1 3.458-3.458c3.387 0 3.819 3.01 3.715 5.62a3.805 3.805 0 0 1 7.35 1.376 3.803 3.803 0 0 1 7.606 0V42c0 6.861-.02 10.84-9.895 19H28.27L23.5 45l-9-12s-1-2 .5-3.5c2-1.5 3.5-.5 3.5-.5l5-8.243s0-2.257 2.5-2.257c2.27 0 2.27 2.257 2.27 2.257a3.803 3.803 0 1 1 7.607 0z" fill="#304081" opacity=".2"/><path d="M24.5 57c0-17-1.761-14.318-12.134-24.72-5.937-5.953.898-9.126 3.154-7.28 5.5 4.5 6.75 6.28 6.75 6.28V16.757a3.803 3.803 0 0 1 7.608 0v9.57-14.87a3.458 3.458 0 1 1 6.915 0v14.87-9.57a3.803 3.803 0 0 1 7.607 0v9.57-4.122a3.803 3.803 0 1 1 7.606 0V38c0 7-.02 11-10.506 19.5" stroke="#304081" stroke-linecap="round" stroke-linejoin="round" stroke-width="4"/></svg>