<svg width="126" height="126" fill="none" xmlns="http://www.w3.org/2000/svg"><g clip-path="url(#clip0)"><path d="M14.874 69.356A33.265 33.265 0 0 0-.933 79.481 33.257 33.257 0 0 0-8.76 96.542a24.316 24.316 0 0 0 .392 12.168l3.504 12.304a21.397 21.397 0 0 0 3.993 8.07 14.988 14.988 0 0 0 5.975 4.292c4.626 1.89 10.504 2.101 17.311 2.348l.092-.027a7.124 7.124 0 0 0 2.217-.268 7.218 7.218 0 0 0 2.737-1.482 8.17 8.17 0 0 0 2.124-8.111l-6.91-24.262a.86.86 0 0 1 .015-.819.877.877 0 0 1 .689-.444l.314-.089a.873.873 0 0 1 1.129.302.865.865 0 0 1 .134.401l9.757 23.471 26.424-7.524a29.565 29.565 0 0 0 7.027-3.064 16.077 16.077 0 0 1-5.909-4.041 16.058 16.058 0 0 1-3.55-6.216 1.493 1.493 0 0 1 .81-1.931c.962-.273 1.414.225 2.204 1.766a12.023 12.023 0 0 0 3.107 3.757 13.15 13.15 0 0 0 8.465 2.804 27.644 27.644 0 0 0 8.087-14.2c.807-4.305-.485-11.372-1.836-16.116a3.137 3.137 0 0 0-1.34-2.065 3 3 0 0 0-2.341-.088 8.486 8.486 0 0 0-1.118.418c-.713.326-1.447.602-2.198.826-1.363.388-2.283.35-2.812-.12-.8-.71-.548-2.32-.324-3.743l-.002-.007.002-.012c.19-1.2.37-2.332-.087-2.793a.988.988 0 0 0-.898-.2L57.976 73.46a15.406 15.406 0 0 1-7.127-.633 15.413 15.413 0 0 1-6.066-3.797A14.67 14.67 0 0 0 30.12 65.02l-15.247 4.342v-.005zM42.431 87.09l-.009.002a4.925 4.925 0 0 1-6.078-3.383 4.923 4.923 0 0 1 3.384-6.077 4.924 4.924 0 0 1 6.077 3.383 6.058 6.058 0 0 1-.588 3.745 4.575 4.575 0 0 1-2.784 2.33h-.002z" fill="#3F55AB"/><path d="M114.796 48.728c10.38-7.227 12.935-21.5 5.708-31.88-7.768-11.157-24.051-12.966-34.11-3.942-7.589-10.9-21.42-16.303-33.189-8.108-10.38 7.227-13.009 21.912-5.782 32.291l27.36 39.296c13.302-9.265 26.72-18.402 40.013-27.657z" fill="#FE6456"/><path d="M63.74 26.95a6.07 6.07 0 0 1 1.513-8.45" stroke="#FE6456" stroke-width="6" stroke-linecap="round" stroke-linejoin="round"/></g><defs><clipPath id="clip0"><path fill="#fff" d="M0 0H126V126H0z"/></clipPath></defs></svg>