<svg fill="none" height="64" width="64" xmlns="http://www.w3.org/2000/svg"><mask id="a" fill="#000" height="31" maskUnits="userSpaceOnUse" width="40" x="12.138" y="8"><path d="M12.138 8h40v31h-40z" fill="#fff"/><path clip-rule="evenodd" d="M18.781 14.556l5.288 5.11c-4.38 0-7.931 3.433-7.931 7.667h6.609c-2.334 2.256-1.322 5.111 1.322 7.667l7.93-7.667L39.932 35c2.644-2.556 3.656-5.41 1.322-7.667h6.609c0-4.234-3.55-7.666-7.931-7.666l5.287-5.111S43.896 12 39.931 12C34.643 12 32 17.111 32 17.111S29.356 12 24.069 12c-3.966 0-5.288 2.556-5.288 2.556z" fill-rule="evenodd"/></mask><path clip-rule="evenodd" d="M20 16l7.5 7.5c-5.523 0-11.5 4.495-11.5 9.833h5.5C20 34.833 22.667 39.778 26 43l10-9.667L46 43c3.333-3.222 4.61-6.822 1.667-9.667H56c0-5.338-4-10.833-9-10.833l5.667-5.278S51 14 46 14c-4.326 0-7.249 2.714-8.767 4.62C36.256 17.3 32.643 13 27 13c-5 0-7 3-7 3z" fill="#304081" fill-rule="evenodd" opacity=".2"/><path d="M24.069 19.667v4a4 4 0 0 0 2.78-6.876zm-5.288-5.111l-3.553-1.838a4 4 0 0 0 .773 4.713zm-2.643 12.777h-4a4 4 0 0 0 4 4zm6.609 0l2.78 2.876a4 4 0 0 0-2.78-6.876zM24.069 35l-2.78 2.876a4 4 0 0 0 5.56 0zm7.93-7.667l2.78-2.876a4 4 0 0 0-5.56 0zM39.932 35l-2.78 2.876a4 4 0 0 0 5.56 0zm1.322-7.667v-4a4 4 0 0 0-2.78 6.876zm6.609 0v4a4 4 0 0 0 4-4zm-7.931-7.666l-2.78-2.876a4 4 0 0 0 2.78 6.876zm5.287-5.111l2.78 2.876a4 4 0 0 0 .773-4.714zM32 17.11l-3.553 1.838a4 4 0 0 0 7.106 0zm-5.151-.32l-5.287-5.111-5.56 5.752 5.287 5.11zm-6.711 10.542c0-1.898 1.63-3.666 3.93-3.666v-8c-6.46 0-11.93 5.096-11.93 11.666zm2.609-4h-6.61v8h6.61zm4.102 8.791c-.493-.476-.843-.904-1.076-1.262-.235-.361-.307-.587-.327-.674-.013-.062.009 0-.025.11-.034.109-.062.073.106-.089l-5.56-5.752c-2.14 2.07-2.932 4.754-2.33 7.464.531 2.399 2.058 4.414 3.652 5.955zm2.37-7.667l-7.93 7.667 5.56 5.752 7.93-7.667zm13.492 7.667l-7.931-7.667-5.56 5.752 7.93 7.667zm-4.238-1.915c.167.162.14.198.106.09-.034-.112-.012-.173-.026-.11-.019.086-.092.312-.327.673-.232.358-.583.786-1.075 1.262l5.56 5.752c1.594-1.54 3.12-3.556 3.652-5.955.601-2.71-.19-5.395-2.33-7.464zm9.389-6.876h-6.61v8h6.61zm-7.931.334c2.3 0 3.93 1.768 3.93 3.666h8c0-6.57-5.47-11.666-11.93-11.666zm2.507-11.987l-5.287 5.11 5.56 5.753 5.287-5.111zM39.931 16c1.047 0 1.518.314 1.684.442.107.083.163.151.174.166.006.007-.002-.002-.023-.035a1.905 1.905 0 0 1-.068-.118l-.016-.03-.008-.015a.678.678 0 0 0-.006-.012c-.002-.003-.003-.005 3.55-1.842 3.553-1.838 3.552-1.84 3.55-1.842l-.001-.005-.005-.009a1.172 1.172 0 0 0-.031-.058 4.697 4.697 0 0 0-.19-.324 7.578 7.578 0 0 0-.431-.614 8.979 8.979 0 0 0-1.601-1.59C45.022 8.964 42.849 8 39.93 8zM32 17.111a496.977 496.977 0 0 1 3.551 1.84l-.001.003-.003.005-.004.009-.007.012-.003.006.034-.059c.04-.069.115-.189.221-.344.218-.315.547-.738.975-1.151.87-.842 1.91-1.432 3.168-1.432V8c-4.03 0-6.956 1.966-8.729 3.68a15.732 15.732 0 0 0-2 2.362 13.905 13.905 0 0 0-.674 1.08 6.32 6.32 0 0 0-.067.125l-.008.014a.2.2 0 0 0-.003.007l-.002.003c0 .001-.001.002 3.552 1.84zM24.069 16c1.258 0 2.297.59 3.168 1.432a7.734 7.734 0 0 1 1.196 1.495l.034.059-.003-.006-.007-.012-.005-.009-.002-.005-.002-.002c0-.002-.001-.003 3.552-1.84 3.553-1.839 3.552-1.84 3.551-1.841l-.001-.003-.004-.007a1.561 1.561 0 0 1-.007-.014l-.018-.034a7.651 7.651 0 0 0-.202-.357c-.125-.21-.298-.49-.522-.814a15.732 15.732 0 0 0-2-2.362C31.024 9.966 28.098 8 24.07 8zm-5.288-1.444c3.553 1.837 3.552 1.84 3.551 1.842l-.002.004-.004.008-.009.016-.015.029a2.427 2.427 0 0 1-.069.118c-.02.033-.028.042-.023.035.012-.015.068-.083.175-.166.166-.128.636-.442 1.684-.442V8c-2.918 0-5.091.964-6.578 2.114a8.979 8.979 0 0 0-1.601 1.59 7.604 7.604 0 0 0-.57.845 5.276 5.276 0 0 0-.073.133l-.01.018-.004.01-.002.004c-.001.002-.002.004 3.55 1.842z" fill="#304081" mask="url(#a)"/><path d="M32 39v18" stroke="#304081" stroke-linecap="round" stroke-linejoin="round" stroke-width="4"/></svg>