<svg fill="none" height="64" width="64" xmlns="http://www.w3.org/2000/svg"><g fill="#304081"><ellipse cx="38" cy="38" opacity=".2" rx="23" ry="23" transform="rotate(-90 38 38)"/><circle cx="31" cy="14" r="2"/><circle cx="31" cy="49" r="2"/><circle cx="50" cy="32" r="2" transform="rotate(90 50 32)"/><circle cx="15" cy="32" r="2" transform="rotate(90 15 32)"/><rect height="16" rx="2" width="4" x="29" y="18"/><rect height="16" rx="2" transform="rotate(90 45 30)" width="4" x="45" y="30"/></g><path d="M32 8c13.255 0 24 10.745 24 24S45.255 56 32 56 8 45.255 8 32 18.745 8 32 8z" stroke="#304081" stroke-width="4"/></svg>