<svg fill="none" height="64" width="64" xmlns="http://www.w3.org/2000/svg"><path d="M20 19.938c0-1.07.867-1.938 1.938-1.938H53v14.5C53 41.613 45.613 49 36.5 49S20 41.613 20 32.5z" fill="#304081" opacity=".2"/><g stroke="#304081" stroke-width="4"><path d="M15 13h33v14.5C48 36.613 40.613 44 31.5 44S15 36.613 15 27.5z" stroke-linecap="round" stroke-linejoin="round"/><path d="M32 43v13"/><path d="M46 56H17" stroke-linecap="round"/></g><path d="M31.5 18l2.357 7.255h7.63l-6.173 4.484 2.358 7.256L31.5 32.51l-6.172 4.484 2.358-7.256-6.172-4.484h7.629z" fill="#304081"/><path d="M48 29c4.97 0 9-3.134 9-7s-4.03-7-9-7M15 29c-4.97 0-9-3.134-9-7s4.03-7 9-7" stroke="#304081" stroke-width="4"/></svg>