<svg width="126" height="126" fill="none" xmlns="http://www.w3.org/2000/svg"><g clip-path="url(#clip0)"><path d="M62.989 126h-.007a62.612 62.612 0 0 1-24.517-4.956 62.996 62.996 0 0 1-10.7-5.809 63.468 63.468 0 0 1-9.321-7.693 63.464 63.464 0 0 1-7.69-9.322 63.003 63.003 0 0 1-5.806-10.7A62.582 62.582 0 0 1 0 63.008a62.606 62.606 0 0 1 4.948-24.525 63.007 63.007 0 0 1 5.808-10.7 63.463 63.463 0 0 1 7.692-9.325 63.461 63.461 0 0 1 9.323-7.694 63.003 63.003 0 0 1 10.7-5.809A62.587 62.587 0 0 1 62.992 0H63a62.61 62.61 0 0 1 24.522 4.951 63.012 63.012 0 0 1 10.7 5.808 63.435 63.435 0 0 1 9.324 7.692 63.474 63.474 0 0 1 7.693 9.323 62.996 62.996 0 0 1 5.809 10.7A62.578 62.578 0 0 1 126 62.992a62.61 62.61 0 0 1-4.949 24.525 62.996 62.996 0 0 1-5.809 10.7 63.412 63.412 0 0 1-17.019 17.019 63.067 63.067 0 0 1-10.7 5.81A62.64 62.64 0 0 1 62.989 126zm-11.5-97.77c-6.661.042-13.17 2-18.747 5.641-5.582 3.634-10 8.8-12.724 14.877a25.36 25.36 0 0 0-3.083 12.317v13.342a22.325 22.325 0 0 0 1.7 9.236 15.63 15.63 0 0 0 4.768 6.011c4.1 3.218 9.936 5.108 16.693 7.3h.1a7.45 7.45 0 0 0 5.469-.341 8.524 8.524 0 0 0 4.447-7.529V62.775a.9.9 0 0 1 .248-.818.913.913 0 0 1 .818-.248h.341a.9.9 0 0 1 .819.248.9.9 0 0 1 .247.818l3.082 26.33h28.654c2.676-.01 5.34-.368 7.924-1.066a16.76 16.76 0 0 1-4.773-5.741 16.753 16.753 0 0 1-1.786-7.249 1.558 1.558 0 0 1 1.365-1.705c1.043 0 1.354.629 1.706 2.4A12.535 12.535 0 0 0 90.8 80.4a13.718 13.718 0 0 0 7.69 5.231 28.828 28.828 0 0 0 6.985-5.048 28.826 28.826 0 0 0 5.183-6.885c2.039-4.088 2.762-11.546 2.762-16.69a3.27 3.27 0 0 0-.755-2.454 3.126 3.126 0 0 0-2.323-.757c-.415.004-.83.038-1.241.1a17.63 17.63 0 0 1-2.44.2c-1.478 0-2.39-.3-2.786-.923-.6-.94.113-2.484.744-3.847v-.008l.005-.011c.534-1.149 1.038-2.234.711-2.827a1.032 1.032 0 0 0-.844-.457L93.55 44.659a16.066 16.066 0 0 1-6.968-2.671 16.075 16.075 0 0 1-5-5.541 15.3 15.3 0 0 0-13.561-8.212H51.488l.001-.005zm22.576 25.659h-.01a5.136 5.136 0 0 1-5.13-5.13 5.135 5.135 0 0 1 5.13-5.129 5.135 5.135 0 0 1 5.129 5.129 6.318 6.318 0 0 1-1.659 3.589 4.77 4.77 0 0 1-3.458 1.542l-.002-.001z" fill="#979797"/></g></svg>