<svg fill="none" height="64" width="64" xmlns="http://www.w3.org/2000/svg"><path d="M18.563 9h26.875L47 15H17z" stroke="#304081" stroke-linecap="round" stroke-linejoin="round" stroke-width="4"/><path d="M21.743 55.706l-1.979.29a2 2 0 0 0 1.98 1.71zm-1.14-7.79v-2a2 2 0 0 0-1.978 2.29zm22.173 7.79v2a2 2 0 0 0 1.979-1.71zm1.139-7.79l1.979.29a2 2 0 0 0-1.979-2.29zM17.945 29.74l-1.978.289a2 2 0 0 0 1.978 1.71zm28.628 0v2a2 2 0 0 0 1.98-1.711zm1.266-8.656l1.98.29a2 2 0 0 0-1.98-2.29zm-31.16 0v-2a2 2 0 0 0-1.978 2.29zm7.043 34.332l-1.14-7.79-3.957.58 1.14 7.79zm19.054-1.71H21.743v4h21.033zm-.84-6.08l-1.14 7.79 3.959.58 1.139-7.79zm1.979-1.71H20.604v4h23.311zM17.945 31.74h28.628v-4H17.946zM45.86 20.794l-1.266 8.655 3.958.579 1.266-8.655zm-29.18 2.29h31.16v-4H16.68zm3.245 6.365l-1.266-8.655-3.958.578 1.266 8.656z" fill="#304081"/><path d="M26.792 58.294l-4.463-31.01A2 2 0 0 1 24.309 25H50.69a2 2 0 0 1 1.98 2.285l-4.462 31A2 2 0 0 1 46.23 60H28.77a1.991 1.991 0 0 1-1.978-1.706z" fill="#304081" opacity=".2"/><g stroke="#304081" stroke-width="4"><path d="M17.437 30h29.192a1 1 0 0 1 .993 1.116l-1.87 16a1 1 0 0 1-.993.884h-25.14a1 1 0 0 1-.991-.865l-2.182-16a1 1 0 0 1 .99-1.135z"/><path d="M3.84 18.288l53.641 32.495" stroke-linecap="round"/></g></svg>