<svg xmlns="http://www.w3.org/2000/svg" viewBox="0 0 126 126"><path fill="#4055AC" d="M62.989 126h-.007a62.611 62.611 0 0 1-24.517-4.956 63.012 63.012 0 0 1-10.7-5.809 63.462 63.462 0 0 1-9.321-7.693 63.445 63.445 0 0 1-7.69-9.322 63 63 0 0 1-5.806-10.7A62.582 62.582 0 0 1 0 63.008a62.606 62.606 0 0 1 4.948-24.525 63.008 63.008 0 0 1 5.808-10.7 63.461 63.461 0 0 1 7.692-9.325 63.456 63.456 0 0 1 9.323-7.694 63 63 0 0 1 10.7-5.809A62.587 62.587 0 0 1 62.992 0H63a62.61 62.61 0 0 1 24.522 4.951 63.015 63.015 0 0 1 10.7 5.808 63.456 63.456 0 0 1 9.324 7.692 63.451 63.451 0 0 1 7.693 9.323 63 63 0 0 1 5.809 10.7A62.588 62.588 0 0 1 126 62.992a62.6 62.6 0 0 1-4.949 24.525 63 63 0 0 1-5.809 10.7 63.454 63.454 0 0 1-7.694 9.325 63.456 63.456 0 0 1-9.325 7.694 63.017 63.017 0 0 1-10.7 5.81A62.632 62.632 0 0 1 62.989 126zm-11.5-97.77a34.692 34.692 0 0 0-18.747 5.641 34.685 34.685 0 0 0-12.724 14.877 25.36 25.36 0 0 0-3.083 12.317v13.342a22.325 22.325 0 0 0 1.7 9.236 15.63 15.63 0 0 0 4.768 6.011c4.1 3.218 9.936 5.108 16.693 7.3h.1a7.451 7.451 0 0 0 2.3.364 7.522 7.522 0 0 0 3.169-.705 8.524 8.524 0 0 0 4.447-7.529V62.775a.9.9 0 0 1 .248-.818.913.913 0 0 1 .641-.266.9.9 0 0 1 .177.018h.341a.9.9 0 0 1 .177-.018.914.914 0 0 1 .642.266.9.9 0 0 1 .247.818l3.082 26.33h28.654a30.84 30.84 0 0 0 7.924-1.066 16.758 16.758 0 0 1-4.773-5.741 16.752 16.752 0 0 1-1.786-7.249 1.558 1.558 0 0 1 1.365-1.705c1.043 0 1.354.629 1.706 2.4A12.534 12.534 0 0 0 90.8 80.4a13.718 13.718 0 0 0 7.69 5.231 28.833 28.833 0 0 0 6.985-5.048 28.827 28.827 0 0 0 5.183-6.885c2.039-4.088 2.762-11.546 2.762-16.69a3.273 3.273 0 0 0-.755-2.454 3.128 3.128 0 0 0-2.323-.757 8.836 8.836 0 0 0-1.241.1 17.623 17.623 0 0 1-2.44.2c-1.478 0-2.39-.3-2.786-.923-.6-.94.113-2.484.744-3.847v-.008l.005-.011c.534-1.149 1.038-2.234.711-2.827a1.031 1.031 0 0 0-.844-.457L93.55 44.659a16.067 16.067 0 0 1-6.968-2.671 16.075 16.075 0 0 1-5-5.541 15.3 15.3 0 0 0-5.636-6 15.3 15.3 0 0 0-7.925-2.212H51.488zm22.576 25.659h-.01a5.136 5.136 0 0 1-5.13-5.13 5.135 5.135 0 0 1 5.13-5.129 5.135 5.135 0 0 1 5.129 5.129 6.318 6.318 0 0 1-1.659 3.589 4.771 4.771 0 0 1-3.458 1.542z"/></svg>