<svg fill="none" height="64" width="64" xmlns="http://www.w3.org/2000/svg"><path d="M17.032 58L11 18h38l-6.032 40z" stroke="#304081" stroke-linecap="round" stroke-linejoin="round" stroke-width="4"/><path d="M21.928 60.306l-5.571-36A2 2 0 0 1 18.333 22h34.334a2 2 0 0 1 1.976 2.306l-5.571 36A2 2 0 0 1 47.095 62h-23.19a2 2 0 0 1-1.977-1.694z" fill="#304081" opacity=".2"/><g stroke="#304081" stroke-linecap="round" stroke-linejoin="round" stroke-width="4"><path d="M24 58l-3-34.5M36 58l3-34.5m-9 0V58M10 11h39M30 9V6"/></g></svg>