<svg fill="none" height="64" width="64" xmlns="http://www.w3.org/2000/svg"><path d="M34 21.938c4.314 6.405 1 11.328-1.49 13.006-4.355 2.934-9.196 3.367-13.51-3.038-4.315-6.405-2.114-20.156-2.114-20.156C23 13.438 29.686 15.533 34 21.938z" fill="#304081" opacity=".2"/><g stroke="#304081" stroke-width="4"><path d="M16 47.438h32m-25 7h18m-9-25v18" stroke-linecap="round" stroke-linejoin="round"/><path d="M20.588 9.315c5.33 1.589 10.363 3.707 13.753 8.74 1.863 2.766 1.971 5.007 1.534 6.64-.462 1.723-1.59 2.988-2.483 3.59-1.965 1.324-3.761 1.89-5.372 1.662-1.558-.221-3.407-1.255-5.362-4.158-.864-1.284-1.467-3.044-1.842-5.094-.37-2.03-.497-4.22-.491-6.264.005-1.979.132-3.782.263-5.116z"/><path d="M35.5 10.438c7 3.833 11.5 15.5 4 21" stroke-linecap="round" stroke-linejoin="round"/></g></svg>