<svg fill="none" height="64" width="64" xmlns="http://www.w3.org/2000/svg"><mask id="a" fill="#fff"><path clip-rule="evenodd" d="M16 12a7 7 0 1 1 14 0v5.054a20.804 20.804 0 0 1 4 .097V12a7 7 0 1 1 14 0v13c0 .108-.002.216-.007.322A20.408 20.408 0 0 1 52 37.5C52 48.822 42.822 58 31.5 58S11 48.822 11 37.5a20.42 20.42 0 0 1 5-13.417z" fill-rule="evenodd"/></mask><g fill="#304081"><path clip-rule="evenodd" d="M24.038 17.604a6.604 6.604 0 1 1 13.207 0v1.41a19.298 19.298 0 0 1 3.774.224v-1.634a6.604 6.604 0 1 1 13.207 0V27.72C56.601 31.174 58 35.415 58 40c0 11.598-8.954 21-20 21s-20-9.402-20-21c0-5.894 2.313-11.222 6.038-15.036z" fill-rule="evenodd" opacity=".2"/><path d="M30 17.054h-4v4.3l4.288-.31zm4 .097l-.483 3.97 4.483.546V17.15zm13.993 8.171l-3.996-.18-.064 1.417.844 1.142zM16 24.083l3.023 2.62.977-1.128v-1.492zM23 1c-6.075 0-11 4.925-11 11h8a3 3 0 0 1 3-3zm11 11c0-6.075-4.925-11-11-11v8a3 3 0 0 1 3 3zm0 5.054V12h-8v5.054zM31.5 13c-.6 0-1.197.022-1.788.065l.577 7.979c.399-.03.803-.044 1.211-.044zm2.983.18A24.72 24.72 0 0 0 31.5 13v8c.684 0 1.358.042 2.017.122zM38 17.15V12h-8v5.15zM38 12a3 3 0 0 1 3-3V1c-6.075 0-11 4.925-11 11zm3-3a3 3 0 0 1 3 3h8c0-6.075-4.925-11-11-11zm3 3v13h8V12zm0 13c0 .048-.001.095-.003.141l7.992.363c.007-.168.011-.335.011-.504zm12 12.5a24.408 24.408 0 0 0-4.791-14.556L44.777 27.7A16.408 16.408 0 0 1 48 37.5zM31.5 62C45.031 62 56 51.031 56 37.5h-8C48 46.613 40.613 54 31.5 54zM7 37.5C7 51.031 17.969 62 31.5 62v-8C22.387 54 15 46.613 15 37.5zm5.977-16.036A24.42 24.42 0 0 0 7 37.5h8a16.42 16.42 0 0 1 4.023-10.798zM12 12v12.083h8V12z" mask="url(#a)"/><circle cx="26" cy="32" r="3"/><circle cx="38" cy="32" r="3"/></g><path d="M39 43s-.778 4-7 4c-5.444 0-7-4-7-4" stroke="#304081" stroke-linecap="round" stroke-linejoin="round" stroke-width="4"/></svg>