<svg width="11" height="10" viewBox="0 0 11 10" fill="none" xmlns="http://www.w3.org/2000/svg">
<path fill-rule="evenodd" clip-rule="evenodd" d="M4.88672 1.00003C4.88672 0.447746 5.33443 3.05176e-05 5.88672 3.05176e-05C6.439 3.05176e-05 6.88672 0.447746 6.88672 1.00003V1.12605C7.25374 1.22051 7.60037 1.36576 7.91868 1.55385L8.00804 1.46449C8.39857 1.07397 9.03173 1.07397 9.42226 1.46449C9.81278 1.85502 9.81278 2.48818 9.42226 2.87871L9.3329 2.96806C9.52099 3.28637 9.66624 3.63301 9.7607 4.00003H9.88672C10.439 4.00003 10.8867 4.44775 10.8867 5.00003C10.8867 5.55232 10.439 6.00003 9.88672 6.00003H9.7607C9.66624 6.36705 9.52099 6.71369 9.3329 7.032L9.42226 7.12135C9.81278 7.51188 9.81278 8.14504 9.42226 8.53557C9.03173 8.92609 8.39857 8.92609 8.00804 8.53557L7.91869 8.44621C7.60038 8.6343 7.25374 8.77955 6.88672 8.87401V9.00003C6.88672 9.55231 6.439 10 5.88672 10C5.33443 10 4.88672 9.55232 4.88672 9.00003V8.87401C4.5197 8.77955 4.17306 8.6343 3.85475 8.44621L3.7654 8.53556C3.37488 8.92608 2.74171 8.92608 2.35119 8.53556C1.96066 8.14504 1.96066 7.51187 2.35119 7.12135L2.44054 7.032C2.25245 6.71369 2.1072 6.36705 2.01274 6.00003H1.88672C1.33443 6.00003 0.886719 5.55231 0.886719 5.00003C0.886719 4.44775 1.33443 4.00003 1.88672 4.00003H2.01274C2.1072 3.63301 2.25245 3.28637 2.44054 2.96806L2.35119 2.87871C1.96067 2.48819 1.96067 1.85502 2.35119 1.4645C2.74171 1.07397 3.37488 1.07397 3.7654 1.4645L3.85475 1.55385C4.17306 1.36576 4.5197 1.22051 4.88672 1.12605V1.00003ZM5.88672 7.00003C6.99129 7.00003 7.88672 6.1046 7.88672 5.00003C7.88672 3.89546 6.99129 3.00003 5.88672 3.00003C4.78215 3.00003 3.88672 3.89546 3.88672 5.00003C3.88672 6.1046 4.78215 7.00003 5.88672 7.00003Z" fill="#313030"/>
</svg>
