<svg width="16" height="16" viewBox="0 0 16 16" fill="none" xmlns="http://www.w3.org/2000/svg">
<path fill-rule="evenodd" clip-rule="evenodd" d="M8.63221 7.4617C9.70259 8.53209 9.70259 10.2675 8.63221 11.3379L6.78629 13.1838C5.70259 14.2675 3.94556 14.2675 2.86185 13.1838C1.77815 12.1001 1.77815 10.3431 2.86185 9.25938L3.93143 8.18981C4.1755 7.94573 4.1755 7.55 3.93143 7.30592C3.68735 7.06185 3.29162 7.06185 3.04754 7.30592L1.97797 8.3755C0.406107 9.94736 0.406108 12.4959 1.97797 14.0677C3.54983 15.6396 6.09831 15.6396 7.67018 14.0677L9.51609 12.2218C11.0746 10.6633 11.0746 8.13635 9.51609 6.57781L9.49197 6.5537C9.24789 6.30962 8.85217 6.30962 8.60809 6.5537C8.36401 6.79778 8.36402 7.19351 8.6081 7.43759L8.63221 7.4617ZM9.21395 2.81632C10.2977 1.73261 12.0547 1.73261 13.1384 2.81632C14.2221 3.90002 14.2221 5.65706 13.1384 6.74076L12.0688 7.81033C11.8247 8.05441 11.8247 8.45014 12.0688 8.69422C12.3129 8.9383 12.7086 8.9383 12.9527 8.69422L14.0223 7.62464C15.5941 6.05278 15.5941 3.5043 14.0223 1.93244C12.4504 0.360575 9.90193 0.360575 8.33007 1.93244L6.48415 3.77835C4.92561 5.33689 4.92561 7.86379 6.48415 9.42233L6.50827 9.44645C6.75234 9.69052 7.14807 9.69052 7.39215 9.44645C7.63623 9.20237 7.63623 8.80664 7.39215 8.56256L7.36803 8.53844C6.29765 7.46806 6.29765 5.73262 7.36803 4.66224L9.21395 2.81632Z" fill="#737373"/>
</svg>
