<svg width="18" height="20" viewBox="0 0 18 20" fill="none" xmlns="http://www.w3.org/2000/svg">
<path fill-rule="evenodd" clip-rule="evenodd" d="M3.20576 6.50958H14.7925L14.2466 16.411C14.1663 17.8687 12.9608 19.0096 11.5008 19.0096H6.5194C5.06178 19.0096 3.85736 17.8723 3.77391 16.417L3.20576 6.50958ZM4.79424 8.00958L5.27145 16.3311C5.30938 16.9926 5.85684 17.5096 6.5194 17.5096H11.5008C12.1644 17.5096 12.7124 16.991 12.7489 16.3284L13.2075 8.00958H4.79424Z" fill="#737373"/>
<path fill-rule="evenodd" clip-rule="evenodd" d="M7.99988 0.50415C6.48109 0.50415 5.24988 1.73537 5.24988 3.25415V3.50024H1.5C1.08579 3.50024 0.75 3.83603 0.75 4.25024C0.75 4.66446 1.08579 5.00024 1.5 5.00024H16.5C16.9142 5.00024 17.25 4.66446 17.25 4.25024C17.25 3.83603 16.9142 3.50024 16.5 3.50024H12.7499V3.25415C12.7499 1.73537 11.5187 0.50415 9.99988 0.50415H7.99988ZM11.2499 3.50024V3.25415C11.2499 2.56379 10.6902 2.00415 9.99988 2.00415H7.99988C7.30952 2.00415 6.74988 2.5638 6.74988 3.25415V3.50024H11.2499Z" fill="#737373"/>
</svg>
