<svg width="19" height="14" viewBox="0 0 19 14" fill="none" xmlns="http://www.w3.org/2000/svg">
<path d="M17.9092 1.72847L12.9827 6.65708L17.9198 12.2458C18.0125 12.0153 18.0635 11.7636 18.0635 11.5V2.5C18.0635 2.22653 18.0086 1.96588 17.9092 1.72847Z" fill="#737373"/>
<path d="M16.854 0.662327L9.90298 7.61631C9.41163 8.10786 8.61367 8.10423 8.12682 7.60822L1.29859 0.651474C1.53422 0.553867 1.79256 0.5 2.06348 0.5H16.0635C16.3443 0.5 16.6116 0.557867 16.854 0.662327Z" fill="#737373"/>
<path d="M0.228675 1.7028L5.08736 6.65293L0.187749 12.1956C0.107385 11.9789 0.0634766 11.7446 0.0634766 11.5V2.5C0.0634766 2.21664 0.122405 1.94704 0.228675 1.7028Z" fill="#737373"/>
<path d="M1.20669 13.3077C1.46639 13.431 1.75688 13.5 2.06348 13.5H16.0635C16.3523 13.5 16.6269 13.4388 16.8748 13.3286L11.9202 7.72001L10.9639 8.67675C9.8829 9.75816 8.12738 9.75016 7.05632 8.65894L6.14073 7.72612L1.20669 13.3077Z" fill="#737373"/>
</svg>
