<svg width="24" height="24" viewBox="0 0 24 24" fill="none" xmlns="http://www.w3.org/2000/svg">
<path fill-rule="evenodd" clip-rule="evenodd" d="M20.2193 20C20.7155 20 21.1726 19.756 21.4207 19.36C21.6687 18.964 21.6687 18.476 21.4207 18.08L13.0133 4.63999C12.7661 4.24399 12.3082 4 11.8129 4C11.3176 4 10.8596 4.24399 10.6116 4.63999L2.2051 18.08C1.95702 18.476 1.95702 18.964 2.2051 19.36C2.45226 19.756 2.91021 20 3.4055 20H20.2193ZM4.04842 18.4L11.8129 5.98798L19.5774 18.4H4.04842Z" fill="black"/>
<path fill-rule="evenodd" clip-rule="evenodd" d="M12.629 10.5752C12.629 10.161 12.2636 9.82523 11.8129 9.82523C11.3621 9.82523 10.9967 10.161 10.9967 10.5752V13.2979C10.9967 13.7121 11.3621 14.0479 11.8129 14.0479C12.2636 14.0479 12.629 13.7121 12.629 13.2979V10.5752Z" fill="black"/>
<path d="M12.7651 15.9511C12.7651 16.4344 12.3387 16.8261 11.8129 16.8261C11.287 16.8261 10.8607 16.4344 10.8607 15.9511C10.8607 15.4679 11.287 15.0761 11.8129 15.0761C12.3387 15.0761 12.7651 15.4679 12.7651 15.9511Z" fill="black"/>
</svg>
