<svg width="89" height="20" viewBox="0 0 89 20" fill="none" xmlns="http://www.w3.org/2000/svg">
<g clip-path="url(#clip0_138_3152)">
<path fill-rule="evenodd" clip-rule="evenodd" d="M22.1307 13.7149L21.5818 13.828V13.8312L21.598 14.2836H30.6776L30.9043 10.4839H30.3861C29.9651 11.5017 29.6574 12.1802 29.366 12.6164C28.8316 13.4064 28.5741 13.5679 27.2786 13.5679C25.7079 13.5679 25.6593 13.4064 25.6593 11.9702V8.87005H26.0965C27.2786 8.87005 27.4891 8.95083 27.6835 9.3547C27.8909 9.76871 28.0585 10.2015 28.1838 10.6471H28.6696V6.48235H28.1838C28.0722 6.91136 27.9039 7.32368 27.6835 7.70851C27.4891 8.06392 27.2301 8.19316 26.0965 8.19316H25.6593V4.07527C26.1404 3.95241 26.6365 3.89802 27.1329 3.91372C28.2486 3.91372 28.5887 3.97834 29.1069 4.72146C29.4578 5.26525 29.7612 5.83818 30.0137 6.43389H30.5157L30.3538 3.22067H21.5818V3.67301L22.1307 3.78609C22.6004 3.89756 22.7461 3.97834 22.7461 4.94763V12.5534C22.7461 13.5211 22.6165 13.5857 22.1307 13.7149ZM31.3076 6.51466C31.7124 6.64229 31.8906 6.86845 32.263 7.77313L34.9042 14.2836H36.2644L38.7388 7.95245C39.1274 6.90238 39.3055 6.66167 39.7266 6.51628L40.0326 6.41935V5.99932H37.0708V6.41935L37.5081 6.53243C37.8481 6.61321 38.0101 6.79091 38.0101 7.1447C37.9926 7.45089 37.9213 7.75163 37.7995 8.03322L36.5041 11.7149H36.4231L35.079 8.03322C34.9624 7.76123 34.8913 7.47198 34.8685 7.17701C34.8685 6.7893 35.0305 6.62775 35.3705 6.53082L35.8078 6.41773V5.9977H31.0015V6.41773L31.3076 6.51466ZM39.665 10.0978C39.665 7.32079 41.72 5.78769 43.8397 5.78769C46.0404 5.78769 47.4168 6.88461 47.4654 9.77634H42.1847C42.2333 12.3918 43.2195 13.101 44.8712 13.101C45.6903 13.0972 46.496 12.8931 47.2176 12.5065V13.038C46.7798 13.4937 46.2549 13.8571 45.6739 14.1069C45.0928 14.3566 44.4675 14.4875 43.8348 14.492C41.0512 14.458 39.665 12.8102 39.665 10.0978ZM42.1896 9.16246L44.9246 9.01706C44.9246 7.09462 44.6655 6.38542 43.7101 6.38542C42.9037 6.38542 42.256 7.15924 42.1847 9.16246H42.1896ZM54.129 5.73922C53.0602 5.73922 52.1372 6.5292 51.6854 7.01385L51.6806 6.99769H51.632L51.6644 5.90077L51.4862 5.77153L48.1245 6.15925V6.48235L48.6589 6.83614L48.6717 6.84485C49.1122 7.14407 49.1916 7.19802 49.1916 7.87006V12.8296C49.1916 13.5081 49.1269 13.5889 48.5941 13.7343L48.1731 13.8474V14.2836H52.785V13.8474L52.2506 13.7343C51.7664 13.6535 51.7016 13.5727 51.7016 12.8296V7.66004C51.9121 7.46619 52.2506 7.25617 52.542 7.25617C52.6309 7.25068 52.7196 7.2687 52.7993 7.30842C52.8789 7.34813 52.9466 7.40813 52.9955 7.48234C53.0907 7.70337 53.2488 7.89164 53.4504 8.02375C53.6519 8.15587 53.8879 8.22601 54.129 8.22547C54.4517 8.21386 54.7573 8.07781 54.9815 7.84594C55.2057 7.61408 55.331 7.3045 55.331 6.98235C55.331 6.6602 55.2057 6.35061 54.9815 6.11875C54.7573 5.88688 54.4517 5.75083 54.129 5.73922ZM55.8583 13.8442L56.2794 13.7311C56.8138 13.5857 56.8785 13.5049 56.8785 12.8264V7.87006C56.8785 7.19783 56.799 7.14404 56.3566 6.8446L56.3441 6.83615L55.8098 6.48235V6.15925L59.1764 5.77153L59.3545 5.88462L59.3221 6.90077H59.3869C60.2289 6.30465 61.2799 5.76992 62.4458 5.76992C63.8061 5.76992 64.5332 6.46458 64.5332 7.90075V12.8086C64.5332 13.5033 64.5979 13.5841 65.1161 13.7133L65.5371 13.8264V14.2626H61.0872V13.8264L61.4758 13.7295C61.9616 13.6002 62.0102 13.5517 62.0102 12.8086V8.53241C62.0102 7.56312 61.654 7.25617 60.9091 7.25617C60.4068 7.2714 59.9077 7.34183 59.4209 7.46619V12.8296C59.4209 13.5889 59.4695 13.6212 59.9553 13.7505L60.3439 13.8474V14.2836H55.8923V13.8474L55.8583 13.8442ZM70.1669 5.78446C68.0148 5.78446 65.8465 7.09462 65.8465 10.1463C65.8465 13.0687 67.8529 14.458 70.1669 14.4548C72.3692 14.4548 74.5051 13.1139 74.5051 10.0623C74.5051 7.17217 72.4826 5.78446 70.1669 5.78446ZM70.1216 6.40158C71.2227 6.40158 71.8381 7.01385 71.8381 10.2271H71.8348C71.8348 13.2787 71.1709 13.8442 70.2187 13.8442C69.0544 13.8442 68.5201 13.1333 68.5201 9.87166C68.5201 7.12693 69.1192 6.40158 70.1216 6.40158ZM75.8962 12.2626V6.93146H74.8938V6.54697C75.5062 6.32137 76.0614 5.96421 76.52 5.50078C76.9787 5.03736 77.3296 4.479 77.5479 3.86525H78.4548V5.9977H80.5745L80.364 6.93307H78.4548V12.1027C78.4548 12.8926 78.6977 13.2157 79.4895 13.2157C79.8766 13.2054 80.2618 13.1566 80.6393 13.0703V13.5227C79.9511 14.1493 79.0461 14.4852 78.1147 14.4597C76.6735 14.458 75.8962 13.828 75.8962 12.2626ZM85.1328 5.78769C83.0131 5.78769 80.9581 7.32079 80.9581 10.0978C80.9581 12.8102 82.3378 14.458 85.1377 14.492C85.7703 14.4875 86.3957 14.3566 86.9767 14.1069C87.5577 13.8571 88.0827 13.4937 88.5205 13.038V12.5065C87.7988 12.8931 86.9931 13.0972 86.174 13.101C84.5239 13.101 83.5361 12.3918 83.4876 9.77634H88.7585C88.7099 6.88461 87.3351 5.78769 85.1328 5.78769ZM83.4714 9.1622L86.2016 9.01706C86.2016 7.09462 85.9425 6.38542 84.9871 6.38542C84.1839 6.38542 83.5362 7.15918 83.4714 9.1622Z" fill="black"/>
<path d="M5.35594 4.45975C5.37465 4.71984 5.29876 4.97794 5.14218 5.18673C4.93167 5.3822 4.60294 5.39836 4.41348 5.39836H2.34072C1.94099 5.38709 1.54095 5.39787 1.14241 5.43067C1.01433 5.454 0.889357 5.49194 0.769962 5.54375C0.745672 5.55344 0.737575 5.54375 0.753768 5.5276L5.48549 0.729581C5.50168 0.713426 5.51139 0.719888 5.50168 0.745736C5.44974 0.864848 5.41171 0.989521 5.38832 1.1173C5.35545 1.51489 5.34464 1.91399 5.35594 2.31276V4.45975ZM9.75245 18.9685C9.32847 18.7021 8.99579 18.3133 8.79866 17.8538C8.65145 17.4828 8.59783 17.0814 8.64252 16.6849C8.68721 16.2884 8.82883 15.9089 9.05495 15.5798C9.28106 15.2507 9.58475 14.982 9.93931 14.7974C10.2939 14.6128 10.6885 14.5179 11.0884 14.521C11.1842 14.5213 11.2791 14.5404 11.3674 14.5774C11.4558 14.6143 11.5359 14.6684 11.6032 14.7364C11.6705 14.8045 11.7236 14.8852 11.7595 14.9738C11.7954 15.0624 11.8133 15.1573 11.8123 15.2529C11.8109 15.3824 11.7753 15.5094 11.7091 15.6209C11.6428 15.7323 11.5483 15.8244 11.4349 15.8878C11.3488 15.9335 11.2559 15.9651 11.1597 15.9815C10.9706 15.9958 10.7878 16.0557 10.6269 16.1559C10.5385 16.2221 10.4665 16.3076 10.4165 16.4059C10.3665 16.5042 10.3399 16.6127 10.3387 16.723C10.3381 16.9589 10.4312 17.1855 10.5977 17.353C10.7421 17.4975 10.9137 17.6119 11.1028 17.6895C11.2918 17.7672 11.4945 17.8066 11.6989 17.8053C11.9605 17.8056 12.2196 17.7543 12.4614 17.6545C12.7031 17.5547 12.9228 17.4084 13.1078 17.2238C13.2928 17.0393 13.4395 16.8201 13.5395 16.579C13.6395 16.3378 13.6909 16.0793 13.6907 15.8183C13.6907 14.8328 13.0268 13.9605 12.1523 13.5728C11.9796 13.5026 11.8007 13.4485 11.6179 13.4112C11.375 13.3627 11.1483 13.3304 11.1321 13.3304C10.452 13.2497 8.7517 12.7165 8.63834 11.2141C8.63834 11.2141 8.13635 13.4758 7.13236 14.0897C7.01381 14.1474 6.88878 14.1908 6.75991 14.2189C6.6427 14.2449 6.52354 14.2611 6.40365 14.2674C4.76812 14.3643 3.03542 13.8474 1.83711 12.6196C1.83711 12.6196 1.02744 11.9573 0.606408 10.0994C0.509248 9.6471 0.314926 8.83936 0.201573 8.08007C0.152992 7.80544 0.136799 7.59543 0.120605 7.40157C0.120605 6.61805 0.606408 6.07686 1.21366 6.00094H1.3092H4.51388C5.08065 6.00094 5.40452 5.85554 5.61503 5.66168C5.89032 5.4032 5.95509 5.03164 5.95509 4.59546V1.28693C5.95509 1.26431 5.95509 1.211 5.95509 1.19161C6.0312 0.587418 6.57368 0.101154 7.35906 0.101154H7.74771C7.9271 0.102171 8.1062 0.115666 8.28371 0.141542C8.43053 0.162635 8.57598 0.192303 8.71931 0.230394C9.70711 0.475949 9.91762 1.47432 9.91762 1.47432L12.7191 1.95897C13.6097 2.12052 15.812 2.26591 16.2331 4.47914C17.2209 9.74565 16.6217 14.8506 16.5731 14.8506C15.8768 19.8263 11.7313 19.584 11.7313 19.584C11.0254 19.5769 10.3373 19.3629 9.75245 18.9685ZM13.485 8.37571C12.949 8.32078 12.494 8.53726 12.3272 8.94436C12.2912 9.01405 12.2755 9.0924 12.2819 9.17053C12.2887 9.1891 12.2997 9.20587 12.314 9.21958C12.3283 9.23329 12.3456 9.24359 12.3644 9.24969C12.684 9.36136 13.0175 9.42824 13.3555 9.4484C13.8235 9.50494 14.1522 9.53563 14.3643 9.4904C14.3841 9.4888 14.4033 9.48274 14.4204 9.47266C14.4375 9.46259 14.4521 9.44877 14.4631 9.43224C14.4889 9.35783 14.4922 9.27753 14.4728 9.20123C14.4032 8.76827 14.0178 8.45487 13.485 8.38217V8.37571Z" fill="#00A82D"/>
</g>
<defs>
<clipPath id="clip0_138_3152">
<rect width="88.8889" height="20" fill="white"/>
</clipPath>
</defs>
</svg>
