<svg width="18" height="22" viewBox="0 0 18 22" fill="none" xmlns="http://www.w3.org/2000/svg">
<path fill-rule="evenodd" clip-rule="evenodd" d="M7.95521 3.05337L7.95333 4.3885L7.41358 4.54548C5.57352 5.08065 4.22372 6.79249 4.22372 8.82485L4.22375 12.1198C4.22375 12.6348 4.09096 13.1413 3.83803 13.5897C3.75911 13.7296 3.61979 13.8994 3.50685 14.0327C3.37703 14.186 3.21849 14.3635 3.05667 14.541C2.73303 14.8958 2.37953 15.2682 2.18064 15.4777L2.17942 15.479C2.13484 15.5259 2.09886 15.5638 2.07239 15.5918C2.02515 15.678 2 15.7753 2 15.8749C2 15.9164 2.00416 15.9561 2.01184 15.9939C2.06622 16.2615 2.30038 16.4562 2.57196 16.4562H15.428C15.739 16.4562 16 16.2009 16 15.8749C16 15.7634 15.9685 15.6547 15.9097 15.5615C15.9057 15.5566 15.8965 15.5453 15.88 15.5262C15.8491 15.4906 15.8064 15.4432 15.7522 15.3843C15.6438 15.2666 15.5041 15.1192 15.349 14.9554L15.3455 14.9517C15.1271 14.7211 14.8806 14.461 14.6744 14.233C14.5708 14.1184 14.4724 14.0066 14.3902 13.9069C14.3175 13.8187 14.2256 13.7025 14.1621 13.5899C13.909 13.1415 13.7762 12.6349 13.7762 12.1197L13.7762 8.8365L13.7762 8.82485C13.7758 6.79291 12.4262 5.08069 10.5865 4.54554L10.046 4.38831V3.0529C10.0218 2.51893 9.58907 2.1001 9.00007 2.1001C8.41148 2.1001 7.97915 2.51861 7.95521 3.05337ZM6.45567 3.01242C6.50388 1.61368 7.65129 0.600098 9.00007 0.600098C10.3482 0.600098 11.4973 1.61311 11.5456 3.01242L11.546 3.02533V3.29156C13.7332 4.16724 15.2762 6.31587 15.2762 8.82485L15.2762 8.83649L15.2762 12.1197C15.2762 12.3771 15.3426 12.6297 15.4685 12.8528C15.4658 12.8482 15.466 12.8483 15.4702 12.8541C15.4782 12.8651 15.5009 12.8962 15.5473 12.9524C15.6087 13.0269 15.6901 13.1198 15.7868 13.2268C15.9803 13.4406 16.2156 13.689 16.438 13.9239L16.4411 13.9272C16.5926 14.087 16.7392 14.2418 16.8555 14.368C16.9518 14.4725 17.0828 14.6158 17.1534 14.7224C17.3796 15.0642 17.5 15.4652 17.5 15.8749C17.5 17.0194 16.5773 17.9562 15.428 17.9562H2.57196C1.56587 17.9562 0.734028 17.2382 0.541877 16.2925C0.514334 16.157 0.5 16.0172 0.5 15.8749C0.5 15.5163 0.592195 15.1645 0.76678 14.8533C0.791731 14.8088 0.818362 14.7651 0.846642 14.7224C0.863924 14.6963 0.911062 14.639 0.915738 14.6331C0.92255 14.6245 0.952549 14.5921 0.915738 14.6331C0.9226 14.6249 0.91254 14.6367 0.915738 14.6331C0.899787 14.6515 0.910742 14.6385 0.915738 14.6331C0.926301 14.6217 0.958147 14.5871 0.972563 14.5718C1.00167 14.5409 1.04247 14.4979 1.09085 14.447C1.29058 14.2366 1.63566 13.873 1.94844 13.5301C2.10515 13.3583 2.24974 13.196 2.36242 13.0631C2.46708 12.9395 2.51495 12.8749 2.52792 12.8574C2.531 12.8532 2.53155 12.8527 2.53155 12.8527C2.65739 12.6296 2.72375 12.377 2.72375 12.1198L2.72372 8.82485C2.72372 6.3155 4.26715 4.16661 6.45487 3.29118L6.45525 3.0248L6.45567 3.01242Z" fill="#A6A6A6"/>
<path d="M6.50429 19.3989C6.78877 20.5198 7.81763 21.3501 9.04328 21.3501C10.2689 21.3501 11.2978 20.5198 11.5823 19.3989H6.50429Z" fill="#A6A6A6"/>
</svg>