<svg width="16" height="20" viewBox="0 0 16 20" fill="none" xmlns="http://www.w3.org/2000/svg">
<path fill-rule="evenodd" clip-rule="evenodd" d="M14.2493 19.1408H1.75084C0.854738 19.1408 0.128906 18.4363 0.128906 17.5665V7.33404C0.128906 6.46506 0.854738 5.75981 1.75084 5.75981H4.75619V7.33404H1.75084V17.5665H14.2493V7.33404H11.2439V5.75981H14.2493C15.1454 5.75981 15.8712 6.46506 15.8712 7.33404V17.5665C15.8712 18.4363 15.1454 19.1408 14.2493 19.1408ZM9.90907 3.95887L8.81102 2.89311V12.8438C8.81102 13.2783 8.44771 13.631 8.00005 13.631C7.5524 13.631 7.18909 13.2783 7.18909 12.8438V2.89311L6.09103 3.95887C5.78692 4.25404 5.29393 4.25404 4.98981 3.95887C4.6857 3.6637 4.6857 3.18516 4.98981 2.88999L7.2962 0.651437C7.33105 0.589271 7.36263 0.524703 7.41697 0.471184C7.57348 0.320045 7.77949 0.249231 7.98382 0.253171C7.98956 0.253171 7.99431 0.25 8.00005 0.25C8.00491 0.25 8.00896 0.253939 8.01391 0.253939C8.21903 0.248415 8.42583 0.319276 8.58314 0.471184C8.63996 0.527057 8.6756 0.593162 8.71124 0.658499L11.0103 2.88999C11.3144 3.18516 11.3144 3.6637 11.0103 3.95887C10.7062 4.25404 10.2132 4.25404 9.90907 3.95887Z" fill="#FFFFFF"/>
</svg>
