<?xml version="1.0" encoding="utf-8"?>
<!-- Generator: Adobe Illustrator 24.0.0, SVG Export Plug-In . SVG Version: 6.00 Build 0)  -->
<!DOCTYPE svg PUBLIC "-//W3C//DTD SVG 1.1//EN" "http://www.w3.org/Graphics/SVG/1.1/DTD/svg11.dtd" [
	<!ENTITY ns_extend "http://ns.adobe.com/Extensibility/1.0/">
	<!ENTITY ns_ai "http://ns.adobe.com/AdobeIllustrator/10.0/">
	<!ENTITY ns_graphs "http://ns.adobe.com/Graphs/1.0/">
	<!ENTITY ns_vars "http://ns.adobe.com/Variables/1.0/">
	<!ENTITY ns_imrep "http://ns.adobe.com/ImageReplacement/1.0/">
	<!ENTITY ns_sfw "http://ns.adobe.com/SaveForWeb/1.0/">
	<!ENTITY ns_custom "http://ns.adobe.com/GenericCustomNamespace/1.0/">
	<!ENTITY ns_adobe_xpath "http://ns.adobe.com/XPath/1.0/">
]>
<svg version="1.1" id="Слой_1" xmlns:x="&ns_extend;" xmlns:i="&ns_ai;" xmlns:graph="&ns_graphs;"
	 xmlns="http://www.w3.org/2000/svg" xmlns:xlink="http://www.w3.org/1999/xlink" x="0px" y="0px" viewBox="0 0 128 128"
	 style="enable-background:new 0 0 128 128;" xml:space="preserve">
<style type="text/css">
	.st0{fill:#DD636E;}
	.st1{fill:#DA4A54;}
	.st2{fill:#F9F6F9;}
</style>
<metadata>
	<sfw  xmlns="&ns_sfw;">
		<slices></slices>
		<sliceSourceBounds  bottomLeftOrigin="true" height="126.0056458" width="126" x="0.7647059" y="-126.8007126">
			</sliceSourceBounds>
	</sfw>
</metadata>
<g>
	<circle class="st0" cx="63.7647057" cy="63.8007126" r="63"/>
	<path class="st1" d="M71.997963,126.267128c-2.693634,0.3523788-5.4474564,0.5323257-8.2338829,0.5323257
		c-34.7914848,0-62.9987488-28.2072601-62.9987488-62.9987411c0-34.7983856,28.2066345-63.0056458,62.9987488-63.0056458
		c2.7870522,0,5.5402489,0.1793246,8.2338829,0.5323308C41.0970688,5.3578119,17.2331009,31.7893829,17.2331009,63.8007126
		C17.2331009,95.8051376,41.0970688,122.2367096,71.997963,126.267128z"/>
	<path class="st2" d="M70.6160355,63.8007126l21.086937-21.0869522c1.8923187-1.8916855,1.8923187-4.9590149,0-6.8513298
		c-1.8916855-1.8916855-4.9590073-1.8916855-6.851326,0L63.7647018,56.9493752L42.6777573,35.8624306
		c-1.8916855-1.8916855-4.9590149-1.8916855-6.8513298,0s-1.8923149,4.9590149,0,6.851326L56.913372,63.800705
		L35.8264236,84.8876495c-1.8923149,1.8916855-1.8923149,4.9590149,0,6.8513336
		c0.9461555,0.9461594,2.1857567,1.4189224,3.425354,1.4189224s2.4798203-0.4733963,3.4253464-1.4189224l21.0869446-21.0869446
		l21.0869446,21.0869446c0.9461594,0.9461594,2.1857605,1.4189224,3.4253464,1.4189224
		c1.2395935,0,2.4798279-0.4733963,3.425354-1.4189224c1.8923187-1.8916855,1.8923187-4.9590149,0-6.8513336L70.6160355,63.8007126z
		"/>
</g>
</svg>
