<svg width="20" height="20" viewBox="0 0 20 20" fill="none" xmlns="http://www.w3.org/2000/svg">
<path fill-rule="evenodd" clip-rule="evenodd" d="M13.1882 2.84002C11.6452 2.15251 9.92134 1.9822 8.27367 2.35446C6.62601 2.72673 5.14282 3.62164 4.04531 4.90572C2.9478 6.18981 2.29478 7.79426 2.18364 9.4798C2.07249 11.1653 2.50918 12.8416 3.42858 14.2587C4.34797 15.6758 5.70081 16.7577 7.28533 17.3431C8.86984 17.9285 10.6011 17.986 12.221 17.5071C13.8409 17.0281 15.2626 16.0384 16.274 14.6854C17.2854 13.3325 17.8324 11.6889 17.8333 9.99968V8.7333H18.8333V9.99997C18.8322 11.9048 18.2154 13.7586 17.0749 15.2842C15.9344 16.8098 14.3312 17.9259 12.5046 18.466C10.6779 19.0061 8.72557 18.9413 6.93877 18.2811C5.15198 17.621 3.62643 16.401 2.58967 14.803C1.55291 13.205 1.06047 11.3147 1.1858 9.414C1.31114 7.51329 2.04752 5.70401 3.28514 4.256C4.52275 2.80799 6.19528 1.79884 8.05329 1.37905C9.9113 0.959258 11.8552 1.15132 13.5952 1.92659L14.0519 2.13009L13.6449 3.04352L13.1882 2.84002Z" fill="#201AF5"/>
<path fill-rule="evenodd" clip-rule="evenodd" d="M17.7475 5.33223L10.0005 13.0895L6.08578 9.17483L7.5 7.76061L9.99953 10.2601L16.3324 3.91895L17.7475 5.33223Z" fill="#201AF5"/>
</svg>
