<?xml version="1.0" encoding="UTF-8"?>
<svg xmlns="http://www.w3.org/2000/svg" xmlns:xlink="http://www.w3.org/1999/xlink" width="40pt" height="40pt" viewBox="0 0 40 40" version="1.1">
<defs>
<linearGradient id="linear0" gradientUnits="userSpaceOnUse" x1="15.738076" y1="104.496559" x2="112.261925" y2="23.503437" gradientTransform="matrix(0.3125,0,0,0.3125,0,0)">
<stop offset="0" style="stop-color:rgb(98.431373%,72.156863%,17.647059%);stop-opacity:1;"/>
<stop offset="0.532842" style="stop-color:rgb(99.215686%,43.529412%,33.72549%);stop-opacity:1;"/>
<stop offset="1" style="stop-color:rgb(99.215686%,11.372549%,70.196078%);stop-opacity:1;"/>
</linearGradient>
<linearGradient id="linear1" gradientUnits="userSpaceOnUse" x1="34.12357" y1="89.069298" x2="93.876427" y2="38.930698" gradientTransform="matrix(0.3125,0,0,0.3125,0,0)">
<stop offset="0" style="stop-color:rgb(98.431373%,72.156863%,17.647059%);stop-opacity:1;"/>
<stop offset="0.532842" style="stop-color:rgb(99.215686%,43.529412%,33.72549%);stop-opacity:1;"/>
<stop offset="1" style="stop-color:rgb(99.215686%,11.372549%,70.196078%);stop-opacity:1;"/>
</linearGradient>
</defs>
<g id="surface1">
<path style=" stroke:none;fill-rule:nonzero;fill:url(#linear0);" d="M 39.6875 20 C 39.6875 30.875 30.875 39.6875 20 39.6875 C 9.125 39.6875 0.3125 30.875 0.3125 20 C 0.3125 9.125 9.125 0.3125 20 0.3125 C 30.875 0.3125 39.6875 9.125 39.6875 20 Z M 39.6875 20 "/>
<path style=" stroke:none;fill-rule:nonzero;fill:rgb(100%,100%,100%);fill-opacity:1;" d="M 35.9375 20 C 35.9375 28.800781 28.800781 35.9375 20 35.9375 C 11.199219 35.9375 4.0625 28.800781 4.0625 20 C 4.0625 11.199219 11.199219 4.0625 20 4.0625 C 28.800781 4.0625 35.9375 11.199219 35.9375 20 Z M 35.9375 20 "/>
<path style=" stroke:none;fill-rule:nonzero;fill:url(#linear1);" d="M 32.1875 20 C 32.1875 26.730469 26.730469 32.1875 20 32.1875 C 13.269531 32.1875 7.8125 26.730469 7.8125 20 C 7.8125 13.269531 13.269531 7.8125 20 7.8125 C 26.730469 7.8125 32.1875 13.269531 32.1875 20 Z M 32.1875 20 "/>
<path style=" stroke:none;fill-rule:nonzero;fill:rgb(100%,100%,100%);fill-opacity:1;" d="M 23.125 19.0625 L 23.125 11.5625 L 16.875 11.5625 L 16.875 19.0625 L 12.5 19.0625 L 20 28.4375 L 27.5 19.0625 Z M 23.125 19.0625 "/>
</g>
</svg>
