<svg width="20" height="20" viewBox="0 0 20 20" fill="none" xmlns="http://www.w3.org/2000/svg">
<path fill-rule="evenodd" clip-rule="evenodd" d="M9.99999 2.16675C5.67376 2.16675 2.16666 5.67385 2.16666 10.0001C2.16666 14.3263 5.67376 17.8334 9.99999 17.8334C14.3262 17.8334 17.8333 14.3263 17.8333 10.0001C17.8333 5.67385 14.3262 2.16675 9.99999 2.16675ZM1.16666 10.0001C1.16666 5.12157 5.12147 1.16675 9.99999 1.16675C14.8785 1.16675 18.8333 5.12157 18.8333 10.0001C18.8333 14.8786 14.8785 18.8334 9.99999 18.8334C5.12147 18.8334 1.16666 14.8786 1.16666 10.0001Z" fill="#FD003D"/>
<path fill-rule="evenodd" clip-rule="evenodd" d="M14.4142 6.99991L7 14.4141L5.58578 12.9999L13 5.58569L14.4142 6.99991Z" fill="#FD003D"/>
<path fill-rule="evenodd" clip-rule="evenodd" d="M7 5.58569L14.4142 12.9999L13 14.4141L5.58578 6.99991L7 5.58569Z" fill="#FD003D"/>
</svg>
