<?xml version="1.0" encoding="utf-8"?>
<!-- Generator: Adobe Illustrator 24.0.0, SVG Export Plug-In . SVG Version: 6.00 Build 0)  -->
<!DOCTYPE svg PUBLIC "-//W3C//DTD SVG 1.1//EN" "http://www.w3.org/Graphics/SVG/1.1/DTD/svg11.dtd" [
	<!ENTITY ns_extend "http://ns.adobe.com/Extensibility/1.0/">
	<!ENTITY ns_ai "http://ns.adobe.com/AdobeIllustrator/10.0/">
	<!ENTITY ns_graphs "http://ns.adobe.com/Graphs/1.0/">
	<!ENTITY ns_vars "http://ns.adobe.com/Variables/1.0/">
	<!ENTITY ns_imrep "http://ns.adobe.com/ImageReplacement/1.0/">
	<!ENTITY ns_sfw "http://ns.adobe.com/SaveForWeb/1.0/">
	<!ENTITY ns_custom "http://ns.adobe.com/GenericCustomNamespace/1.0/">
	<!ENTITY ns_adobe_xpath "http://ns.adobe.com/XPath/1.0/">
]>
<svg version="1.1" xmlns:x="&ns_extend;" xmlns:i="&ns_ai;" xmlns:graph="&ns_graphs;"
	 xmlns="http://www.w3.org/2000/svg" xmlns:xlink="http://www.w3.org/1999/xlink" x="0px" y="0px" viewBox="0 0 128 128"
	 style="enable-background:new 0 0 128 128;" xml:space="preserve">
<style type="text/css">
	.st0{display:none;}
	.st1{display:inline;fill:url(#SVGID_1_);}
	.st2{fill:url(#SVGID_2_);}
	.st3{fill:#FFFFFF;}
	.st4{fill:url(#SVGID_3_);}
</style>
<metadata>
	<sfw  xmlns="&ns_sfw;">
		<slices></slices>
		<sliceSourceBounds  bottomLeftOrigin="true" height="126" width="128" x="0" y="-127"></sliceSourceBounds>
	</sfw>
</metadata>
<g id="Слой_1" class="st0">
	
		<linearGradient id="SVGID_1_" gradientUnits="userSpaceOnUse" x1="29.7565098" y1="99.2464294" x2="3.7434905" y2="125.2594528" gradientTransform="matrix(4 0 0 -4 -3 517)">
		<stop  offset="0" style="stop-color:#FBB82D"/>
		<stop  offset="0.5328417" style="stop-color:#FD6F56"/>
		<stop  offset="1" style="stop-color:#FD1DB3"/>
	</linearGradient>
	<path class="st1" d="M126.0746155,94.8282623h-3.6967468V71.5585327c0-1.0633621-0.86203-1.9253922-1.9253922-1.9253922
		c-1.0633698,0-1.9253922,0.86203-1.9253922,1.9253922v23.2697296H9.4729223v-66.871582
		c0.0066681-5.4052029,4.3867884-9.7853203,9.7919893-9.7919903h89.4701843
		c5.4051971,0.0066681,9.7853241,4.3867855,9.7919922,9.7919903V64c0,1.0633621,0.8620224,1.9253845,1.9253922,1.9253845
		c1.0633621,0,1.9253922-0.8620224,1.9253922-1.9253845V27.9566784c-0.0078888-7.5314293-6.111351-13.6348906-13.6427765-13.6427727
		H19.2649136c-7.5314264,0.007884-13.6348886,6.1113453-13.6427717,13.6427727v66.871582H1.9253912
		C0.8620269,94.8282623,0,95.6902924,0,96.7536545l0,0v7.305481c0.0060631,5.3143082,4.3126488,9.6208954,9.626956,9.6269608
		h10.4411211c1.0633621,0,1.9253902-0.86203,1.9253902-1.9253922c0-1.0633698-0.8620281-1.9253922-1.9253902-1.9253922H9.626955
		c-3.1885853-0.0036316-5.7725358-2.5875854-5.7761736-5.7761765v-5.3800888h40.1042519
		c0.8768883,4.5271835,4.8373947,7.7991714,9.4487228,7.8060837h21.1924973
		c4.6113281-0.0069122,8.5718307-3.2789001,9.4487228-7.8060837c2.5503159-0.0110092,38.5925369,0.0077057,40.1031418,0v5.3800888
		c-0.0036316,3.188591-2.5875854,5.7725449-5.7761765,5.7761765H45.7032738c-1.0633621,0-1.9253883,0.8620224-1.9253883,1.9253922
		c0,1.0633621,0.8620262,1.9253922,1.9253883,1.9253922h72.6697693c5.3143082-0.0060654,9.6208954-4.3126526,9.6269531-9.6269608
		v-7.305481c0-1.0633621-0.8620224-1.9253922-1.9253922-1.9253922l0,0H126.0746155z M74.5962524,102.6343536H53.4037476
		c-2.4471092-0.0025101-4.6279221-1.5445099-5.446106-3.8507843h32.0847168
		C79.2241745,101.0898438,77.0433655,102.6318359,74.5962524,102.6343536z M38.1447487,113.6860962H27.6266098
		c-1.0633621,0-1.9253902-0.86203-1.9253902-1.9253922c0-1.0633698,0.8620281-1.9253922,1.9253902-1.9253922h10.5181389
		c1.0633659,0,1.9253922,0.8620224,1.9253922,1.9253922C40.0701408,112.8240662,39.2081146,113.6860962,38.1447487,113.6860962z
		 M86.4742661,39.4815178c0.6960678,0.8038826,0.6086731,2.0198364-0.1952133,2.7159081
		c-0.000206,0.0001793-0.0004196,0.0003662-0.0006256,0.0005455L44.2410851,78.5812607
		c-0.8042068,0.695755-2.0201607,0.6078262-2.7159042-0.1963882s-0.6078186-2.0201569,0.1963921-2.7159042L83.7589111,39.285675
		C84.5628891,38.5901337,85.7784271,38.677803,86.4742661,39.4815178z M65.259758,37.3272781L46.4239273,53.6292915
		c-0.8173561,0.6801987-2.0313644,0.5690041-2.7115631-0.2483521c-0.6616669-0.7950974-0.5768623-1.9709206,0.1920509-2.662838
		l18.8358307-16.303112c0.8042068-0.6957436,2.0201607-0.6078186,2.7159004,0.1963921
		C66.1518936,35.4155846,66.0639648,36.6315346,65.259758,37.3272781L65.259758,37.3272781z"/>
</g>
<g id="Слой_2">
	<linearGradient id="SVGID_2_" gradientUnits="userSpaceOnUse" x1="15.7380762" y1="104.4965591" x2="112.2619247" y2="23.503437">
		<stop  offset="0" style="stop-color:#FBB82D"/>
		<stop  offset="0.5328417" style="stop-color:#FD6F56"/>
		<stop  offset="1" style="stop-color:#FD1DB3"/>
	</linearGradient>
	<circle class="st2" cx="64" cy="64" r="63"/>
	<circle class="st3" cx="64" cy="64" r="59"/>
	
		<linearGradient id="SVGID_3_" gradientUnits="userSpaceOnUse" x1="25.6503048" y1="103.6674118" x2="7.8496962" y2="121.4680176" gradientTransform="matrix(4 0 0 -4 -3 517)">
		<stop  offset="0" style="stop-color:#FBB82D"/>
		<stop  offset="0.5328417" style="stop-color:#FD6F56"/>
		<stop  offset="1" style="stop-color:#FD1DB3"/>
	</linearGradient>
	<path class="st4" d="M106.477417,85.0956573h-2.5296707V69.1722717c0-0.7276535-0.5898819-1.3175354-1.3175354-1.3175354
		c-0.7276611,0-1.317543,0.5898819-1.317543,1.3175354v15.9233856H26.6873341v-45.759964
		c0.0045624-3.6987572,3.0018616-6.6960526,6.7006207-6.7006187h61.2240906
		c3.698761,0.0045624,6.6960602,3.0018616,6.7006226,6.7006187V64c0,0.7276535,0.5898819,1.3175354,1.317543,1.3175354
		c0.7276535,0,1.3175354-0.5898819,1.3175354-1.3175354V39.3356934C103.9423523,34.1819687,99.7657776,30.005394,94.6120453,30
		H33.3879547c-5.1537247,0.0053959-9.3303013,4.1819687-9.3356953,9.3356934v45.759964h-2.5296726
		c-0.7276554,0-1.3175373,0.5898819-1.3175373,1.317543l0,0v4.999115C20.2091999,95.0488739,23.1561794,97.9958496,26.792738,98
		h7.1448193c0.7276535,0,1.3175354-0.5898819,1.3175354-1.3175354c0-0.7276611-0.5898819-1.317543-1.3175354-1.317543H26.792738
		c-2.1819363-0.0024872-3.9501247-1.7706757-3.9526138-3.9526062v-3.6815796h27.443182
		c0.6000519,3.0979309,3.3102112,5.3369446,6.4657249,5.3416748h14.5019455
		c3.1555099-0.0047302,5.8656693-2.2437439,6.4657211-5.3416748c1.7451706-0.0075302,26.4087219,0.0052719,27.442421,0v3.6815796
		c-0.0024872,2.1819305-1.7706757,3.950119-3.9526062,3.9526062H51.4796219c-0.7276573,0-1.3175354,0.5898819-1.3175354,1.317543
		C50.1620865,97.4101181,50.7519646,98,51.4796219,98h49.7276382c3.6365585-0.0041504,6.5835419-2.9511261,6.5876923-6.5876846
		v-4.999115c0-0.7276611-0.5898819-1.317543-1.317543-1.317543l0,0H106.477417z M71.2509766,90.4373322H56.7490273
		c-1.6745491-0.0017166-3.1668701-1.0568924-3.7267494-2.6350708h21.9554443
		C74.4178467,89.3804398,72.9255219,90.4356155,71.2509766,90.4373322z M46.307354,98h-7.1975212
		c-0.7276573,0-1.3175392-0.5898819-1.3175392-1.3175354c0-0.7276611,0.5898819-1.317543,1.3175392-1.317543h7.1975212
		c0.7276573,0,1.3175354,0.5898819,1.3175354,1.317543C47.6248894,97.4101181,47.0350113,98,46.307354,98z M79.3790512,47.2220993
		c0.4763184,0.5500946,0.4165115,1.382164-0.1335831,1.8584862c-0.000145,0.0001221-0.0002823,0.000248-0.0004272,0.00037
		L50.4790497,73.9779053c-0.5503159,0.4760971-1.3823853,0.4159241-1.8584824-0.1343994
		c-0.4760933-0.5503159-0.4159241-1.3823776,0.1343918-1.8584747l28.7659912-24.896946
		C78.0710983,46.6121292,78.9028931,46.6721191,79.3790512,47.2220993z M64.8620453,45.747963L51.9727631,56.9033661
		c-0.5593147,0.4654579-1.3900566,0.3893661-1.8555145-0.1699486c-0.452774-0.5440788-0.3947449-1.3486938,0.1314201-1.8221703
		l12.889286-11.1561546c0.5503159-0.4760971,1.3823853-0.4159279,1.8584824,0.134388S65.4123611,45.2718658,64.8620453,45.747963
		L64.8620453,45.747963z"/>
</g>
</svg>
