<?xml version="1.0" encoding="utf-8"?>
<!-- Generator: Adobe Illustrator 24.0.0, SVG Export Plug-In . SVG Version: 6.00 Build 0)  -->
<!DOCTYPE svg PUBLIC "-//W3C//DTD SVG 1.1//EN" "http://www.w3.org/Graphics/SVG/1.1/DTD/svg11.dtd" [
	<!ENTITY ns_extend "http://ns.adobe.com/Extensibility/1.0/">
	<!ENTITY ns_ai "http://ns.adobe.com/AdobeIllustrator/10.0/">
	<!ENTITY ns_graphs "http://ns.adobe.com/Graphs/1.0/">
	<!ENTITY ns_vars "http://ns.adobe.com/Variables/1.0/">
	<!ENTITY ns_imrep "http://ns.adobe.com/ImageReplacement/1.0/">
	<!ENTITY ns_sfw "http://ns.adobe.com/SaveForWeb/1.0/">
	<!ENTITY ns_custom "http://ns.adobe.com/GenericCustomNamespace/1.0/">
	<!ENTITY ns_adobe_xpath "http://ns.adobe.com/XPath/1.0/">
]>
<svg version="1.1" id="Слой_1" xmlns:x="&ns_extend;" xmlns:i="&ns_ai;" xmlns:graph="&ns_graphs;"
	 xmlns="http://www.w3.org/2000/svg" xmlns:xlink="http://www.w3.org/1999/xlink" x="0px" y="0px" viewBox="0 0 126 126"
	 style="enable-background:new 0 0 126 126;" xml:space="preserve">
<style type="text/css">
	.st0{fill:url(#SVGID_1_);}
	.st1{fill:#FFFFFF;}
	.st2{fill:url(#SVGID_2_);}
	.st3{fill:url(#SVGID_3_);}
	.st4{fill:url(#SVGID_4_);}
	.st5{fill:url(#SVGID_5_);}
	.st6{fill:url(#SVGID_6_);}
</style>
<metadata>
	<sfw  xmlns="&ns_sfw;">
		<slices></slices>
		<sliceSourceBounds  bottomLeftOrigin="true" height="126" width="126" x="193" y="193"></sliceSourceBounds>
	</sfw>
</metadata>
<linearGradient id="SVGID_1_" gradientUnits="userSpaceOnUse" x1="14.7380762" y1="103.4965591" x2="111.2619247" y2="22.503437">
	<stop  offset="0" style="stop-color:#FBB82D"/>
	<stop  offset="0.5328417" style="stop-color:#FD6F56"/>
	<stop  offset="1" style="stop-color:#FD1DB3"/>
</linearGradient>
<circle class="st0" cx="63" cy="63" r="63"/>
<circle class="st1" cx="63" cy="63" r="59"/>
<g>
	<g>
		<g>
			<linearGradient id="SVGID_2_" gradientUnits="userSpaceOnUse" x1="66.5052414" y1="33.5302658" x2="59.4949036" y2="25.1756687">
				<stop  offset="0" style="stop-color:#FBB82D"/>
				<stop  offset="0.5328417" style="stop-color:#FD6F56"/>
				<stop  offset="1" style="stop-color:#FD1DB3"/>
			</linearGradient>
			<path class="st2" d="M69.4706268,28.0589046H56.5295258c-0.7142906,0-1.2940636,0.5797729-1.2940636,1.2940636
				s0.5797729,1.2940636,1.2940636,1.2940636h12.9411011c0.7142868,0,1.2940598-0.5797729,1.2940598-1.2940636
				C70.7646942,28.6386776,70.1849213,28.0589046,69.4706268,28.0589046z"/>
		</g>
	</g>
	<g>
		<g>
			<linearGradient id="SVGID_3_" gradientUnits="userSpaceOnUse" x1="78.9813766" y1="30.6627426" x2="76.7833176" y2="28.0431919">
				<stop  offset="0" style="stop-color:#FBB82D"/>
				<stop  offset="0.5328417" style="stop-color:#FD6F56"/>
				<stop  offset="1" style="stop-color:#FD1DB3"/>
			</linearGradient>
			<path class="st3" d="M78.5293732,28.0589046h-1.2940598c-0.7142868,0-1.2940598,0.5797729-1.2940598,1.2940636
				s0.5797729,1.2940636,1.2940598,1.2940636h1.2940598c0.7142944,0,1.2940674-0.5797729,1.2940674-1.2940636
				S79.2436676,28.0589046,78.5293732,28.0589046z"/>
		</g>
	</g>
	<g>
		<g>
			<linearGradient id="SVGID_4_" gradientUnits="userSpaceOnUse" x1="66.1111221" y1="97.7668076" x2="59.8887749" y2="90.3512955">
				<stop  offset="0" style="stop-color:#FBB82D"/>
				<stop  offset="0.5328417" style="stop-color:#FD6F56"/>
				<stop  offset="1" style="stop-color:#FD1DB3"/>
			</linearGradient>
			<path class="st4" d="M64.6072311,90.1764145h-3.2132454c-1.9683189,0-3.5703926,1.6020737-3.5703926,3.5703888v0.6251221
				c0,1.9683151,1.6020737,3.5691757,3.5691795,3.5691757h3.2132454c1.9683151,0,3.5703888-1.6008606,3.5703888-3.5691757
				v-0.6251221C68.1764069,91.7784882,66.5743332,90.1764145,64.6072311,90.1764145z M65.5882797,94.3719177
				c0,0.5409546-0.439949,0.980896-0.980896,0.980896h-3.213398c-0.5421638,0-0.9822655-0.4399414-0.9822655-0.980896v-0.6251144
				c0-0.5421677,0.439949-0.9822617,0.9822655-0.9822617h3.2120323c0.5423126,0,0.9822617,0.439949,0.9822617,0.9822617V94.3719177z
				"/>
		</g>
	</g>
	<g>
		<g>
			<linearGradient id="SVGID_5_" gradientUnits="userSpaceOnUse" x1="89.9758682" y1="95.1485443" x2="36.0241737" y2="30.8514156">
				<stop  offset="0" style="stop-color:#FBB82D"/>
				<stop  offset="0.5328417" style="stop-color:#FD6F56"/>
				<stop  offset="1" style="stop-color:#FD1DB3"/>
			</linearGradient>
			<path class="st5" d="M80.3229904,24.1765594H45.6782265C43.0990448,24.1765594,41,26.2756042,41,28.854784v68.2904358
				c0,2.5791779,2.0990448,4.6782227,4.6782265,4.6782227h34.6433983c2.5791855,0,4.6782303-2.0990448,4.6782303-4.676857V28.854784
				C85,26.2756042,82.9009628,24.1765594,80.3229904,24.1765594z M82.4117203,97.1452179
				c0,1.1518173-0.9369202,2.0899506-2.0887299,2.0899506H45.6782265c-1.1530266,0-2.0899467-0.9382858-2.0899467-2.0887375
				V28.854784c0-1.1518116,0.9369164-2.0899448,2.0899467-2.0899448h34.6433983
				c1.1530304,0,2.0899506,0.9382839,2.0899506,2.0899448v68.2904358H82.4117203z"/>
		</g>
	</g>
	<g>
		<g>
			<linearGradient id="SVGID_6_" gradientUnits="userSpaceOnUse" x1="85.7686996" y1="87.5463181" x2="40.2314453" y2="33.2771339">
				<stop  offset="0" style="stop-color:#FBB82D"/>
				<stop  offset="0.5328417" style="stop-color:#FD6F56"/>
				<stop  offset="1" style="stop-color:#FD1DB3"/>
			</linearGradient>
			<path class="st6" d="M83.7057877,31.9412479H42.2942162c-0.7142906,0-1.2940636,0.5797749-1.2940636,1.2940655v54.3528214
				c0,0.7142868,0.5797729,1.2940598,1.2940636,1.2940598h41.4117241C84.4202271,88.8821945,85,88.3024216,85,87.5881348V33.2353134
				C85,32.5210228,84.4202271,31.9412479,83.7057877,31.9412479z M82.4117203,86.2940674H43.5882797V34.5295296h38.8234406
				V86.2940674z"/>
		</g>
	</g>
</g>
</svg>
