<svg xmlns="http://www.w3.org/2000/svg" viewBox="0 0 236.9 236.9" style="enable-background:new 0 0 236.9 236.9;"
  xml:space="preserve">
  <style type="text/css">
    .st0 {
      fill: none;
    }

    .st1 {
      fill: #2C273D;
    }

    .st2 {
      fill: #B40F42;
    }

    .st3 {
      fill: #FFFFFF;
    }

    .st4 {
      fill: #EBBB8A;
    }

    .st5 {
      fill: #F0C49D;
    }

    .st6 {
      fill: #DCA472;
    }

    .st7 {
      fill: #C1845B;
    }

    .st8 {
      fill: #C38B5E;
    }

    .st9 {
      fill: #B8875F;
    }

    .st10 {
      fill: #264F71;
    }

    .st11 {
      fill: #B38660;
    }

    .st12 {
      fill: #6B331E;
    }

    .st13 {
      fill: #6E3417;
    }
  </style>
  <g id="Calque_2_1_">
    <g id="Calque_1-2">
      <g id="arnold">
        <ellipse class="st0" cx="118.5" cy="118.5" rx="118.5" ry="118.5" />
        <path class="st1" d="M208.3,195.8c-19.8,23.1-47.7,37.6-78,40.6c2-16.1,21-43.7,21.7-44.6l0,0v-11.4c2.4-2.2,5.1-4.8,7.5-7.4
				l0.7,0.6l10.1,9.3L208.3,195.8z" />
        <path class="st2" d="M126,236.7c-2.5,0.2-5,0.2-7.5,0.2s-5-0.1-7.5-0.2c0.1-10.3,3.8-16.2,3.8-16.2h7.4
				C122.2,220.4,125.9,226.3,126,236.7z" />
        <path class="st3" d="M151.9,191.8c-0.6,0.9-19.6,28.5-21.7,44.6c-1.4,0.1-2.8,0.2-4.2,0.3c-0.1-10.3-3.8-16.2-3.8-16.2
				c0-1.7,3.7-4.4,3.7-6.9s-7.4-7.7-7.4-7.7C132.1,205.8,144.3,200.3,151.9,191.8z" />
        <path class="st2" d="M125.9,213.5c0,2.5-3.7,5.3-3.7,6.9h-7.4c0-1.7-3.7-4.4-3.7-6.9s7.4-7.7,7.4-7.7l0,0
				C118.5,205.8,125.9,211,125.9,213.5z" />
        <path class="st3" d="M111.1,213.5c0,2.5,3.7,5.3,3.7,6.9c0,0-3.7,5.9-3.8,16.2c-1.4-0.1-2.8-0.2-4.2-0.3
				c-2-16.1-21-43.7-21.7-44.6c7.6,8.5,19.8,14,33.4,14C118.5,205.8,111.1,211,111.1,213.5z" />
        <path class="st1" d="M106.7,236.4c-30.3-3-58.2-17.5-78-40.6l38-12.8l10.2-9.3l0.7-0.6c2.5,2.6,5.1,5.2,7.5,7.4v11.4l0,0
				C85.7,192.7,104.7,220.3,106.7,236.4z" />
        <path class="st4" d="M183.5,101c0.1,7.8-1.7,15-2.6,22.8c-0.6,5.6,1,15.9-6.6,16.6c-0.8,0.1-1.5,0.1-2.3,0.2l3.8-24l0.7-4.4v-0.8
				c0.8-1.4,1.4-2.8,1.9-4.3c0.6-2.1,1.4-4.2,2.4-6.2c0.7-1.3,1.5-2.2,2.2-1.6c0.1,0.1,0.2,0.2,0.3,0.3
				C183.5,100,183.6,100.5,183.5,101z" />
        <path class="st5" d="M176.5,111.3L175,74.4c0,0,0,0,0-0.1c-1.5-12.5-4.2-24.3-9.4-28.4c-12.6-10-26.6-4.4-47.1-4.4l0,0
				C98,41.6,84,36,71.4,45.9C66.2,50,63.5,61.8,62,74.4c0,0,0,0,0,0.1l-1.5,36.1v0.8v0.8l4.5,28.5l0,0l3,19.1c0.3,1.7,1,3.3,2,4.6
				c2.4,3,5,5.9,7.7,8.7c2.5,2.6,5.1,5.2,7.5,7.4c1.6,1.4,3.1,2.7,4.4,3.7c10.5,7.8,21.8,13.6,29,13.6s18.6-5.9,29-13.6
				c1.3-1,2.8-2.2,4.4-3.7c2.4-2.2,5.1-4.8,7.5-7.4c3.1-3.3,6-6.5,7.7-8.7c1-1.3,1.7-2.9,2-4.6l3-19.1l0,0l3.8-24l0.7-4.4
				L176.5,111.3z M108.6,138.1c-0.6-0.4-0.7-1.2-0.3-1.8c0.2-0.4,0.6-0.6,1.1-0.6h18.2c0.7,0,1.3,0.6,1.3,1.3c0,0.4-0.2,0.8-0.6,1.1
				c-2.6,1.8-7.6,2.4-9.3,2.5h-0.6h-0.3H118C116.5,140.6,111.3,140,108.6,138.1z M139.9,154.1l-9,5c-3.8,2.1-8,3.2-12.3,3.3l0,0
				c-4.3-0.1-8.6-1.2-12.4-3.3l-9-5c-0.1-0.1-0.1-0.2-0.1-0.3c0-0.1,0.1-0.1,0.2-0.1c3.8,0.2,16.2,1,21.2,1l0,0
				c5.1,0,17.5-0.7,21.2-1c0.1,0,0.3,0.1,0.3,0.2C140.1,153.9,140,154,139.9,154.1L139.9,154.1L139.9,154.1z" />
        <path class="st6" d="M151.9,180.4v11.4l0,0c-7.6,8.5-19.8,14-33.4,14l0,0c-13.7,0-25.8-5.5-33.4-14l0,0v-11.4
				c1.6,1.4,3.1,2.7,4.4,3.7c10.5,7.8,21.8,13.6,29,13.6s18.6-5.9,29-13.6C148.8,183.1,150.3,181.8,151.9,180.4z" />
        <path class="st7" d="M139.9,154.1l-9,5c-3.8,2.1-8,3.2-12.3,3.3l0,0c-4.3-0.1-8.6-1.2-12.4-3.3l-9-5c-0.1-0.1-0.1-0.2-0.1-0.3
				c0-0.1,0.1-0.1,0.2-0.1c3.8,0.2,16.2,1,21.2,1l0,0c5.1,0,17.5-0.7,21.2-1c0.1,0,0.3,0.1,0.3,0.2C140.1,153.9,140,154,139.9,154.1
				L139.9,154.1z" />
        <path class="st4" d="M64.9,140.6c-0.8-0.1-1.5-0.1-2.3-0.2c-7.6-0.7-6-11-6.6-16.6c-0.8-7.8-2.7-15-2.6-22.8
				c0-0.5,0.1-1.1,0.3-1.5c1.9-2.7,4.5,6.6,4.8,7.5c0.5,1.5,1.1,3,1.9,4.3v0.8L64.9,140.6z" />
        <path class="st8" d="M130.7,138.1c-3.9,2.1-12.2,2.6-12.2,2.6s-8.4-0.5-12.2-2.6c-1.3-0.7-0.7-2.4,0.9-2.4h22.7
				C131.4,135.8,132,137.4,130.7,138.1z" />
        <path class="st9" d="M93,142.5c-0.9,1.1-1.6,2.3-2.2,3.5c-0.6,1.2-1.1,2.5-1.3,3.8c-0.3,1.3-0.4,2.7-0.4,4c0,1.4,0.2,2.8,0.4,4.1
				c-0.3-0.7-0.6-1.3-0.8-2c-0.2-0.7-0.4-1.4-0.4-2.1c-0.2-1.4-0.1-2.9,0.2-4.3c0.3-1.4,0.9-2.8,1.7-4
				C90.8,144.3,91.8,143.3,93,142.5z" />
        <path class="st9" d="M144,142.5c1.2,0.8,2.2,1.9,2.9,3.1c0.8,1.2,1.4,2.6,1.7,4c0.3,1.4,0.4,2.9,0.2,4.3
				c-0.1,0.7-0.3,1.4-0.5,2.1c-0.2,0.7-0.5,1.3-0.8,2c0.2-1.4,0.4-2.7,0.4-4.1c0-1.3-0.1-2.7-0.4-4c-0.3-1.3-0.8-2.6-1.4-3.8
				C145.6,144.8,144.9,143.6,144,142.5z" />
        <path class="st10" d="M89.6,102.3c0,1.2,0.5,2.4,1.4,3.2l0,0c1,0.1,2.1,0.1,3.2,0.1c1.1,0,2.1-0.1,3.2-0.2c0.8-0.8,1.3-2,1.3-3.2
				c0-0.5-0.1-1-0.2-1.4c-0.2-0.6-0.5-1.2-1-1.6v-0.1c-1.1-0.2-2.2-0.2-3.2-0.2c-1.2,0-2.3,0.1-3.4,0.4c-0.5,0.5-0.8,1.2-1,1.9
				C89.7,101.5,89.6,101.9,89.6,102.3z" />
        <path class="st3" d="M82.2,103.1c0,0,2.8,2,8.8,2.5l0,0c-0.9-0.9-1.3-2-1.3-3.2c0-0.4,0-0.7,0.2-1.1c0.2-0.7,0.5-1.4,1-1.9
				c-3,0.7-5.8,1.9-8.3,3.6L82.2,103.1z" />
        <path class="st3" d="M97.4,105.5c6.1-0.7,7.3-3.2,7.3-3.2l-0.3-0.3c-2-1.6-4.4-2.6-6.9-2.8v0.1c0.5,0.5,0.8,1,1,1.6
				c0.2,0.5,0.2,0.9,0.2,1.4C98.7,103.5,98.2,104.6,97.4,105.5z" />
        <path class="st11" d="M81.3,102.8l0.2,0.2c0.3-0.1,0.7-0.1,1-0.2c2.5-1.7,5.3-2.9,8.3-3.6c1.1-0.2,2.3-0.4,3.4-0.4
				c1.1,0,2.2,0.1,3.2,0.2c2.5,0.3,4.9,1.3,6.9,2.8l0.9,0.2l0.2-0.2c-1.7-1.4-3.6-2.6-5.7-3.3c-2.1-0.8-4.3-1.1-6.5-1
				c-2.2,0.2-4.4,0.8-6.4,1.8C84.9,100.3,83,101.5,81.3,102.8z" />
        <path class="st12" d="M99.5,89c-2.1-0.5-4.4-0.6-6.5-0.4c-4.6,0.4-10.6,1.7-14.2,4.8c-1.4,1.1-2.3,2.6-2.7,4.3
				c-0.1,0.3,0,0.7,0.2,1c0.3,0.3,0.8,0.4,1.2,0.3c2.2-0.3,4.1-1.5,6.2-2.3c6-2.4,12.8-2.1,19.2-1.8c1.6,0.1,3.5-0.2,2.4-2
				C103.9,90.8,101.8,89.4,99.5,89z" />
        <path class="st10" d="M147.3,102.3c0,1.2-0.5,2.4-1.4,3.2l0,0c-1,0.1-2.1,0.1-3.2,0.1c-1.1,0-2.1-0.1-3.2-0.2
				c-0.8-0.8-1.3-2-1.3-3.2c0-0.5,0.1-1,0.2-1.4c0.2-0.6,0.5-1.2,1-1.6v-0.1c1.1-0.2,2.2-0.2,3.2-0.2c1.2,0,2.3,0.1,3.4,0.4
				c0.5,0.5,0.8,1.2,1,1.9C147.3,101.5,147.3,101.9,147.3,102.3z" />
        <path class="st3" d="M154.8,103.1c0,0-2.8,2-8.8,2.5l0,0c0.9-0.9,1.3-2,1.4-3.2c0-0.4,0-0.7-0.1-1.1c-0.2-0.7-0.5-1.4-1-1.9
				c3,0.7,5.8,1.9,8.3,3.6L154.8,103.1z" />
        <path class="st3" d="M139.6,105.5c-6.1-0.7-7.3-3.2-7.3-3.2l0.3-0.3c2-1.6,4.4-2.6,6.9-2.8v0.1c-0.5,0.5-0.8,1-1,1.6
				c-0.2,0.5-0.2,0.9-0.2,1.4C138.2,103.5,138.7,104.6,139.6,105.5z" />
        <path class="st11" d="M155.7,102.8l-0.2,0.2c-0.4-0.1-0.7-0.1-1-0.2c-2.5-1.7-5.3-2.9-8.3-3.6c-1.1-0.2-2.3-0.4-3.4-0.4
				c-1.1,0-2.2,0.1-3.2,0.2c-2.5,0.3-4.9,1.3-6.9,2.8l-0.9,0.2l-0.2-0.2c1.7-1.4,3.6-2.6,5.7-3.3c2.1-0.8,4.3-1.1,6.5-1
				c2.2,0.2,4.3,0.8,6.3,1.7C152,100.3,153.9,101.5,155.7,102.8z" />
        <path class="st12" d="M137.5,89c2.1-0.5,4.4-0.6,6.5-0.4c4.6,0.4,10.6,1.7,14.2,4.8c1.4,1.1,2.3,2.6,2.7,4.3c0.1,0.3,0,0.7-0.1,1
				c-0.3,0.3-0.8,0.4-1.2,0.3c-2.2-0.3-4.1-1.5-6.2-2.3c-6-2.4-12.8-2.1-19.2-1.8c-1.6,0.1-3.5-0.2-2.4-2
				C133.1,90.8,135.1,89.4,137.5,89z" />
        <path class="st13" d="M186.7,50.1c0,1.4-3.4,24-3.4,24s-0.7,14.3-2.5,26.7c-0.9,2-1.7,4.1-2.4,6.2c-0.5,1.5-1.1,3-1.9,4.3
				L175,74.4c0,0,0,0,0-0.1c-1.5-12.5-4.2-24.3-9.4-28.4c-12.6-10-26.6-4.4-47.1-4.4l0,0C98,41.6,84,36,71.4,45.9
				C66.2,50,63.5,61.8,62,74.4c0,0,0,0,0,0.1l-1.5,36.1c-3.3-8.8-10.2-28.8-10.2-43.6c0-19.5,2.4-20.5,4.6-31.1l3.7-1.5
				c0,0-0.4-10.2,1.7-14.3l3.5,1.2c0,0,2.3-4.8,4.4-6l1,4.6c0,0,10.7-11,17-15.4c1.2-0.3,2.4-0.7,3.7-1l0.7,1.7
				c5.9-2,11.9-3.6,18-4.7l0,0c2-0.2,4-0.3,6-0.3c0.2,0,0.4,0,0.6,0.1c4.1,0.7,8.3,1,12.5,0.8l4.3,3.5c0,0,9.7-0.7,15.7,3.7
				l-1.7,4.3l4.8,1.8c0,0,4.6,0,5.4-1.8c0,0-0.6,4.6,0,5.4s7.4-0.6,7.4-1.8v6.2l7.9-0.2c0,0-0.2,7.2,1.4,8.1s7.7,5.7,7.7,5.7
				s-2,1.7-1.8,2.3C179,38.8,186.7,48.6,186.7,50.1z" />
      </g>
    </g>
  </g>
</svg>
