<svg width="48" height="48" viewBox="0 0 48 48" fill="none"
  xmlns="http://www.w3.org/2000/svg">
  <circle cx="24" cy="24" r="24" fill="#3A62FE"/>
  <path fill-rule="evenodd" clip-rule="evenodd" d="M14.7114 21.0562L15.5027 20.0326C15.8615 19.5686 16.4514 19.3505 17.0234 19.4704C17.4663 19.5633 17.7504 19.9998 17.6582 20.4454C17.6505 20.4823 17.6404 20.5186 17.6278 20.5541C16.9704 22.4091 16.7612 23.6343 17 24.2297C17.9833 23.0542 23.0065 15.3888 24.5942 15.025C25.1242 14.9035 25.6518 15.2373 25.7725 15.7707C25.8134 15.9511 25.8032 16.1395 25.743 16.3144C24.2429 20.6787 23.6077 23.3177 23.8377 24.2314C24.6299 23.1097 25.8068 21.5999 27.3682 19.7022C27.9546 18.9893 28.8903 18.6699 29.7868 18.8764C30.5751 19.058 31.0679 19.8482 30.8874 20.6414C30.8862 20.6467 30.885 20.6519 30.8838 20.6571C30.3405 22.9307 30.1391 24.2609 30.2797 24.6477C30.3416 24.6002 30.4046 24.5515 30.4685 24.5016C31.1847 23.9423 32.0813 23.6698 32.9854 23.7365L40 24.2544L35.3526 24.7862C34.0551 24.9346 32.8668 25.5878 32.0416 26.6062L30.9295 27.9786C30.5654 28.428 30.006 28.6699 29.4314 28.6263C28.8606 28.5831 28.3887 28.1618 28.2781 27.5967C28.0064 26.2087 27.9629 24.5703 28.1476 22.6815C26.7521 24.7795 25.5412 27.7969 24.5151 31.7335C24.3387 32.4104 23.7307 32.8824 23.0353 32.8824C22.3711 32.8824 21.8271 32.3515 21.8067 31.6836L21.4992 21.6175L18.525 27.5151C18.2154 28.1289 17.5343 28.4564 16.8652 28.3132C16.1564 28.1615 15.57 27.6631 15.303 26.9852L14.9697 26.1392C14.4981 24.9422 13.4338 24.0845 12.1698 23.8828C10.7799 23.6611 9.38994 23.4393 8 23.2176L11.096 22.9973C12.5203 22.8959 13.8347 22.1902 14.7114 21.0562Z" fill="white"/>
</svg>
