<svg width="143" height="28" viewBox="0 0 143 28" fill="none" xmlns="http://www.w3.org/2000/svg">
<g clip-path="url(#clip0_644_3479)">
<path d="M52.1072 20.9526C54.5928 20.9526 57.1206 19.6027 57.1206 16.4745C57.1206 13.9034 55.4354 12.9178 53.8766 12.1679L52.381 11.4822C51.3067 10.968 50.7169 10.7109 50.7169 9.89669C50.7169 9.12535 51.2857 8.63255 52.2546 8.63255C53.1183 8.63255 53.8134 8.9968 54.7614 9.81099C54.9088 9.91812 55.0984 9.85384 55.2037 9.70386L56.594 8.0112C56.7204 7.83979 56.6993 7.64695 56.5729 7.5184C55.3512 6.23283 53.8977 5.52577 52.1493 5.52577C49.5794 5.52577 47.494 7.04702 47.494 9.85384C47.494 12.1893 48.9685 13.3249 50.5273 14.0319L52.3178 14.889C53.2447 15.3175 53.8766 15.596 53.8766 16.4745C53.8766 17.4173 53.1183 17.8458 52.044 17.8458C50.9276 17.8458 50.1271 17.3744 49.1581 16.4102C48.9685 16.2602 48.8 16.3245 48.6736 16.4745L47.2623 18.1029C47.1148 18.2743 47.1148 18.4457 47.2201 18.5743C48.1049 19.7741 49.769 20.9526 52.1072 20.9526ZM59.4931 24.7664H62.0841C62.2736 24.7664 62.4211 24.6378 62.4211 24.445V19.6241C63.1162 20.4598 64.1063 20.9526 65.4334 20.9526C68.3192 20.9526 70.2993 18.5743 70.2993 15.446C70.2993 12.3393 68.3192 9.93955 65.4334 9.93955C63.9378 9.93955 62.8845 10.5395 62.2104 11.5251L62.1683 10.518C62.1683 10.3252 62.0209 10.1967 61.8313 10.1967H59.4931C59.3035 10.1967 59.1771 10.3252 59.1771 10.518V24.445C59.1771 24.6378 59.3035 24.7664 59.4931 24.7664ZM64.7382 17.9743C63.3479 17.9743 62.379 16.9673 62.379 15.4246C62.379 13.9248 63.3479 12.9178 64.7382 12.9178C66.1074 12.9178 67.1396 13.9248 67.1396 15.446C67.1396 16.9887 66.1074 17.9743 64.7382 17.9743ZM77.2771 20.9526C78.7306 20.9526 80.0577 20.524 80.9424 19.6241C81.132 19.4527 81.132 19.2813 81.0477 19.1528L80.184 17.91C80.0577 17.7601 79.9734 17.7172 79.8049 17.8029C78.9412 18.2957 78.225 18.3814 77.5299 18.3814C76.0553 18.3814 75.0863 17.8243 74.7282 16.6888H80.6685C81.6165 16.6888 81.8903 16.046 81.8903 14.9747C81.8903 12.275 80.0577 9.93955 76.8979 9.93955C73.7171 9.93955 71.5896 12.3178 71.5896 15.4032C71.5896 18.5957 73.8856 20.9526 77.2771 20.9526ZM74.6861 14.4176C74.9389 13.1749 75.8447 12.6392 76.919 12.6392C77.9933 12.6392 78.8148 13.1535 79.0255 14.4176H74.6861ZM88.8587 20.9526C90.3122 20.9526 91.6393 20.524 92.524 19.6241C92.7136 19.4527 92.7136 19.2813 92.6293 19.1528L91.7657 17.91C91.6393 17.7601 91.555 17.7172 91.3865 17.8029C90.5228 18.2957 89.8066 18.3814 89.1115 18.3814C87.6369 18.3814 86.668 17.8243 86.3099 16.6888H92.2502C93.1981 16.6888 93.4719 16.046 93.4719 14.9747C93.4719 12.275 91.6393 9.93955 88.4795 9.93955C85.2987 9.93955 83.1712 12.3178 83.1712 15.4032C83.1712 18.5957 85.4673 20.9526 88.8587 20.9526ZM86.2677 14.4176C86.5205 13.1749 87.4263 12.6392 88.5006 12.6392C89.5749 12.6392 90.3964 13.1535 90.6071 14.4176H86.2677ZM100.23 20.9526C101.894 20.9526 103.284 20.2026 104.169 19.0242C104.295 18.8742 104.274 18.7028 104.148 18.5743L102.694 17.1601C102.526 16.9887 102.294 16.9887 102.147 17.1387C101.578 17.6744 101.03 17.9529 100.335 17.9529C98.7762 17.9529 97.8493 16.753 97.8493 15.3818C97.8493 14.0319 98.7762 12.9392 100.293 12.9392C101.009 12.9392 101.557 13.1963 102.104 13.7534C102.273 13.9034 102.505 13.9034 102.673 13.732L104.127 12.3178C104.253 12.1893 104.274 11.9964 104.148 11.8679C103.263 10.6895 101.873 9.93955 100.145 9.93955C97.0278 9.93955 94.7528 12.2964 94.7528 15.3818C94.7528 18.5314 97.0699 20.9526 100.23 20.9526ZM112.314 9.93955C110.84 9.93955 109.892 10.6895 109.302 11.7608V5.69718C109.302 5.50434 109.155 5.37579 108.965 5.37579H106.395C106.206 5.37579 106.079 5.50434 106.079 5.69718V20.3741C106.079 20.5669 106.206 20.6954 106.395 20.6954H108.965C109.155 20.6954 109.302 20.5669 109.302 20.3741V15.0604C109.302 13.6677 109.976 12.9392 111.093 12.9392C112.23 12.9392 112.82 13.6677 112.82 15.0604V20.3741C112.82 20.5669 112.967 20.6954 113.157 20.6954H115.706C115.895 20.6954 116.043 20.5669 116.043 20.3741V14.289C116.043 11.5465 114.463 9.93955 112.314 9.93955ZM120.045 8.52542C121.056 8.52542 121.793 7.73266 121.793 6.72563C121.793 5.74003 121.056 4.94727 120.045 4.94727C119.033 4.94727 118.275 5.74003 118.275 6.72563C118.275 7.73266 119.033 8.52542 120.045 8.52542ZM118.739 20.6954H121.351C121.54 20.6954 121.667 20.5669 121.667 20.3741V10.518C121.667 10.3252 121.54 10.1967 121.351 10.1967H118.739C118.549 10.1967 118.423 10.3252 118.423 10.518V20.3741C118.423 20.5669 118.549 20.6954 118.739 20.6954ZM125.054 20.6954H127.645C127.834 20.6954 127.982 20.5669 127.982 20.3741V12.7249H130.046C130.236 12.7249 130.362 12.5964 130.362 12.4035V10.518C130.362 10.3252 130.236 10.1967 130.046 10.1967H127.982V9.14678C127.982 8.43972 128.214 7.92549 129.204 7.92549C129.435 7.92549 129.73 7.98977 130.088 8.05405C130.236 8.07548 130.362 8.05405 130.362 7.90407V5.74003C130.362 5.61147 130.299 5.46149 130.173 5.39721C129.541 5.07582 129.077 5.03297 128.445 5.03297C126.149 5.03297 124.738 6.14713 124.738 8.71826V10.1967H123.516C123.327 10.1967 123.2 10.3252 123.2 10.518V12.4035C123.2 12.5964 123.327 12.7249 123.516 12.7249H124.738V20.3741C124.738 20.5669 124.864 20.6954 125.054 20.6954ZM133.695 24.7664H136.201C136.37 24.7664 136.517 24.6807 136.58 24.5093L142.057 10.5609C142.142 10.3252 142.015 10.1967 141.784 10.1967H139.171C139.003 10.1967 138.834 10.2824 138.771 10.4538L136.496 16.8816L134.221 10.4538C134.158 10.2824 133.989 10.1967 133.821 10.1967H131.209C130.977 10.1967 130.851 10.3252 130.935 10.5609L134.937 20.7169L133.421 24.3807C133.315 24.6378 133.442 24.7664 133.695 24.7664Z" fill="#1C2C40"/>
<path fill-rule="evenodd" clip-rule="evenodd" d="M8.26516 10.508L9.23973 9.22576C9.68151 8.64451 10.408 8.3713 11.1124 8.52155C11.6578 8.63786 12.0078 9.18464 11.8942 9.74281C11.8848 9.789 11.8723 9.83448 11.8568 9.87894C11.0472 12.2026 10.7895 13.7374 11.0836 14.4832C12.2945 13.0107 18.4807 3.4088 20.4359 2.95301C21.0887 2.80084 21.7384 3.21903 21.8871 3.88711C21.9374 4.11313 21.9249 4.34907 21.8508 4.56815C20.0033 10.0351 19.2211 13.3408 19.5043 14.4853C20.48 13.0802 21.9293 11.189 23.8521 8.81183C24.5743 7.91889 25.7267 7.51874 26.8307 7.77743C27.8016 8.00492 28.4084 8.9948 28.1862 9.98841C28.1848 9.99494 28.1834 10.0015 28.1817 10.008C27.5126 12.856 27.2647 14.5222 27.4377 15.0068C27.5141 14.9473 27.5916 14.8862 27.6704 14.8237C28.5522 14.1232 29.6565 13.7818 30.7698 13.8654L39.4086 14.5141L33.6851 15.1802C32.0873 15.3662 30.6238 16.1844 29.6076 17.46L28.2379 19.1792C27.7896 19.7421 27.1007 20.0451 26.3931 19.9905C25.6901 19.9364 25.1089 19.4086 24.9727 18.7008C24.6382 16.9621 24.5846 14.9098 24.812 12.5439C23.0934 15.1719 21.6023 18.9515 20.3386 23.8826C20.1214 24.7306 19.3726 25.3217 18.5161 25.3217C17.6983 25.3217 17.0283 24.6568 17.0031 23.8201L16.6245 11.2111L12.9616 18.5986C12.5804 19.3674 11.7417 19.7776 10.9177 19.5983C10.0447 19.4083 9.3226 18.7839 8.99372 17.9348L8.58329 16.8751C8.00252 15.3757 6.69176 14.3012 5.13521 14.0487C3.42347 13.7709 1.71173 13.4931 0 13.2154L3.81281 12.9394C5.56687 12.8124 7.18554 11.9285 8.26516 10.508Z" fill="#2137FC"/>
</g>
<defs>
<clipPath id="clip0_644_3479">
<rect width="142.667" height="28" fill="white"/>
</clipPath>
</defs>
</svg>
