<svg width="18" height="17" viewBox="0 0 18 17" fill="none" xmlns="http://www.w3.org/2000/svg">
<path d="M7.53223 13.8926C8.92969 13.8926 10.2393 13.4707 11.3291 12.75L15.1787 16.6084C15.4248 16.8545 15.7588 16.9775 16.1016 16.9775C16.8398 16.9775 17.376 16.4062 17.376 15.6855C17.376 15.3516 17.2617 15.0264 17.0156 14.7803L13.1836 10.9395C13.9746 9.82324 14.4492 8.45215 14.4492 6.97559C14.4492 3.16992 11.3291 0.0585938 7.53223 0.0585938C3.72656 0.0585938 0.615234 3.16992 0.615234 6.97559C0.615234 10.7812 3.72656 13.8926 7.53223 13.8926ZM7.53223 12.0469C4.74609 12.0469 2.46094 9.76172 2.46094 6.97559C2.46094 4.19824 4.74609 1.9043 7.53223 1.9043C10.3096 1.9043 12.6035 4.19824 12.6035 6.97559C12.6035 9.76172 10.3096 12.0469 7.53223 12.0469Z" fill="#778FAD"/>
</svg>
